<svg xmlns="http://www.w3.org/2000/svg" xmlns:xlink="http://www.w3.org/1999/xlink" width="500" zoomAndPan="magnify" viewBox="0 0 375 374.999991" height="500" preserveAspectRatio="xMidYMid meet" version="1.0"><defs><clipPath id="0a38894264"><path d="M 31 260 L 348 260 L 348 266.371094 L 31 266.371094 Z M 31 260 " clip-rule="nonzero"/></clipPath><clipPath id="f5ee593963"><path d="M 325.015625 224.019531 L 338.800781 224.019531 L 338.800781 242.753906 L 325.015625 242.753906 Z M 325.015625 224.019531 " clip-rule="nonzero"/></clipPath><clipPath id="4cbae5f4d0"><path d="M 325.570312 241.265625 C 333.03125 238.789062 333.632812 238.453125 334.269531 238.078125 C 334.796875 237.777344 335.207031 237.589844 335.65625 237.101562 C 336.332031 236.425781 337.046875 234.402344 337.683594 234.101562 C 337.984375 233.988281 338.359375 234.066406 338.507812 234.214844 C 338.695312 234.402344 338.808594 234.777344 338.695312 235.039062 C 338.507812 235.488281 337.382812 235.675781 336.632812 236.316406 C 335.433594 237.328125 333.59375 240.550781 332.695312 241.078125 C 332.359375 241.265625 332.058594 241.300781 331.832031 241.191406 C 331.644531 241.039062 331.71875 240.402344 331.53125 240.101562 C 331.382812 239.800781 330.933594 239.652344 330.746094 239.316406 C 330.519531 238.941406 330.484375 238.488281 330.40625 237.816406 C 330.21875 236.464844 329.84375 232.714844 330.144531 231.703125 C 330.257812 231.328125 330.40625 231.101562 330.59375 230.988281 C 330.820312 230.914062 331.121094 230.953125 331.308594 231.066406 C 331.496094 231.175781 331.570312 231.363281 331.644531 231.664062 C 331.796875 232.640625 331.15625 236.839844 330.707031 237.816406 C 330.558594 238.152344 330.371094 238.378906 330.144531 238.414062 C 329.921875 238.488281 329.507812 238.414062 329.359375 238.113281 C 328.871094 237.289062 330.40625 233.050781 330.746094 230.726562 C 331.007812 228.628906 330.933594 225.742188 331.308594 224.765625 C 331.457031 224.390625 331.644531 224.164062 331.871094 224.089844 C 332.058594 224.015625 332.394531 224.089844 332.546875 224.242188 C 332.695312 224.351562 332.769531 224.539062 332.808594 224.878906 C 332.996094 226.003906 332.359375 230.578125 332.058594 232.566406 C 331.871094 233.839844 331.796875 235.226562 331.457031 235.714844 C 331.269531 235.941406 331.046875 236.089844 330.859375 236.089844 C 330.632812 236.089844 330.257812 235.941406 330.144531 235.640625 C 329.695312 234.589844 331.457031 228.101562 332.246094 227.089844 C 332.46875 226.789062 332.769531 226.640625 332.996094 226.679688 C 333.21875 226.714844 333.59375 227.089844 333.671875 227.429688 C 333.746094 227.914062 333.109375 228.664062 332.84375 229.566406 C 332.46875 230.988281 332.246094 233.953125 331.832031 235.226562 C 331.609375 235.863281 331.382812 236.503906 331.046875 236.652344 C 330.859375 236.765625 330.558594 236.726562 330.371094 236.613281 C 330.183594 236.503906 330.109375 236.351562 330.03125 236.015625 C 329.695312 234.777344 329.582031 228.402344 329.996094 227.128906 C 330.109375 226.753906 330.257812 226.527344 330.484375 226.453125 C 330.671875 226.378906 331.007812 226.414062 331.195312 226.566406 C 331.34375 226.679688 331.496094 226.902344 331.496094 227.164062 C 331.457031 227.652344 330.558594 228.289062 330.183594 229.265625 C 329.507812 230.953125 329.320312 235.941406 328.757812 236.914062 C 328.570312 237.214844 328.421875 237.328125 328.234375 237.363281 C 327.96875 237.402344 327.558594 237.363281 327.40625 237.066406 C 326.957031 236.164062 328.796875 230.238281 329.582031 229.039062 C 329.882812 228.589844 330.21875 228.328125 330.484375 228.328125 C 330.746094 228.367188 331.046875 228.703125 331.15625 229.078125 C 331.421875 229.789062 330.894531 231.363281 330.96875 232.640625 C 331.046875 234.175781 332.058594 236.839844 331.757812 237.664062 C 331.644531 238.003906 331.34375 238.226562 331.121094 238.265625 C 330.894531 238.265625 330.40625 238.039062 330.296875 237.703125 C 330.070312 237.066406 331.082031 235.453125 331.421875 233.988281 C 331.945312 231.816406 332.058594 226.902344 332.769531 225.890625 C 332.957031 225.589844 333.257812 225.441406 333.484375 225.476562 C 333.707031 225.476562 334.121094 225.777344 334.15625 226.003906 C 334.15625 226.226562 333.632812 226.378906 333.371094 226.867188 C 332.65625 228.253906 331.984375 235.003906 331.195312 235.863281 C 330.96875 236.128906 330.707031 236.128906 330.519531 236.089844 C 330.332031 236.089844 330.144531 235.941406 329.957031 235.675781 C 329.507812 235.003906 328.90625 231.890625 328.945312 230.953125 C 328.984375 230.539062 329.058594 230.203125 329.28125 230.089844 C 329.507812 229.941406 330.144531 230.128906 330.332031 230.351562 C 330.445312 230.503906 330.445312 230.839844 330.332031 231.027344 C 330.257812 231.214844 329.996094 231.441406 329.769531 231.441406 C 329.582031 231.476562 329.246094 231.363281 329.132812 231.214844 C 328.984375 231.066406 328.90625 230.726562 328.945312 230.539062 C 328.984375 230.316406 329.207031 230.089844 329.394531 230.015625 C 329.621094 229.941406 329.921875 229.941406 330.109375 230.089844 C 330.484375 230.390625 330.746094 231.328125 330.894531 232.152344 C 331.15625 233.164062 331.53125 235.378906 331.195312 235.863281 C 331.007812 236.089844 330.558594 236.128906 330.332031 236.050781 C 330.144531 235.976562 329.957031 235.714844 329.882812 235.339844 C 329.695312 234.363281 330.746094 230.953125 331.121094 229.488281 C 331.34375 228.589844 331.421875 227.992188 331.757812 227.316406 C 332.058594 226.714844 332.582031 225.890625 332.957031 225.628906 C 333.21875 225.476562 333.484375 225.402344 333.671875 225.515625 C 333.894531 225.589844 334.082031 225.890625 334.15625 226.339844 C 334.421875 227.652344 333.40625 232.300781 332.882812 234.402344 C 332.507812 235.789062 332.132812 237.289062 331.683594 237.851562 C 331.53125 238.113281 331.34375 238.226562 331.121094 238.265625 C 330.894531 238.265625 330.59375 238.152344 330.371094 237.890625 C 329.957031 237.363281 329.769531 236.015625 329.621094 234.816406 C 329.433594 233.164062 329.171875 229.828125 329.695312 228.929688 C 329.921875 228.554688 330.40625 228.328125 330.671875 228.367188 C 330.894531 228.441406 331.082031 228.816406 331.15625 229.265625 C 331.269531 230.539062 329.46875 235.941406 328.757812 236.914062 C 328.496094 237.253906 328.269531 237.402344 328.046875 237.402344 C 327.78125 237.363281 327.445312 237.140625 327.296875 236.726562 C 326.921875 235.566406 327.96875 230.351562 328.832031 228.589844 C 329.320312 227.539062 330.144531 226.453125 330.671875 226.414062 C 330.96875 226.378906 331.269531 226.714844 331.496094 227.164062 C 332.058594 228.476562 332.058594 235.226562 331.457031 236.277344 C 331.269531 236.613281 330.933594 236.765625 330.707031 236.726562 C 330.445312 236.691406 330.144531 236.425781 330.03125 236.015625 C 329.695312 234.925781 330.894531 230.765625 331.421875 229.117188 C 331.757812 228.101562 332.058594 227.128906 332.46875 226.828125 C 332.695312 226.679688 332.957031 226.640625 333.144531 226.714844 C 333.371094 226.828125 333.59375 227.054688 333.671875 227.429688 C 333.894531 228.628906 332.246094 234.476562 331.53125 235.566406 C 331.308594 235.902344 331.082031 236.050781 330.859375 236.089844 C 330.632812 236.089844 330.296875 235.941406 330.144531 235.640625 C 329.582031 234.550781 330.632812 228.554688 330.933594 226.640625 C 331.082031 225.703125 331.121094 225.027344 331.34375 224.578125 C 331.496094 224.351562 331.644531 224.164062 331.871094 224.089844 C 332.058594 224.054688 332.394531 224.089844 332.546875 224.242188 C 332.695312 224.351562 332.769531 224.539062 332.808594 224.878906 C 332.996094 226.152344 332.207031 231.515625 331.757812 233.953125 C 331.421875 235.640625 331.046875 237.550781 330.59375 238.113281 C 330.40625 238.378906 330.183594 238.453125 329.957031 238.453125 C 329.769531 238.453125 329.46875 238.378906 329.359375 238.113281 C 328.945312 237.328125 329.734375 232.453125 330.144531 231.515625 C 330.296875 231.214844 330.40625 231.027344 330.59375 230.988281 C 330.859375 230.953125 331.382812 231.101562 331.609375 231.476562 C 332.171875 232.378906 331.570312 235.789062 331.871094 237.476562 C 332.058594 238.789062 333.109375 240.402344 332.808594 240.925781 C 332.65625 241.191406 332.058594 241.300781 331.832031 241.191406 C 331.644531 241.078125 331.457031 240.550781 331.53125 240.101562 C 331.796875 239.015625 334.382812 236.164062 335.65625 235.152344 C 336.484375 234.515625 337.496094 234.027344 338.019531 234.027344 C 338.28125 234.027344 338.507812 234.175781 338.621094 234.363281 C 338.734375 234.550781 338.769531 234.738281 338.695312 235.039062 C 338.546875 235.753906 337.496094 237.402344 336.519531 238.339844 C 335.507812 239.277344 334.15625 239.914062 332.621094 240.589844 C 330.707031 241.453125 326.996094 242.953125 325.871094 242.726562 C 325.421875 242.652344 325.121094 242.390625 325.082031 242.128906 C 325.007812 241.902344 325.570312 241.265625 325.570312 241.265625 " clip-rule="nonzero"/></clipPath><clipPath id="1f4a0c0ed3"><path d="M 323.1875 220.242188 L 348.125 220.242188 L 348.125 250.902344 L 323.1875 250.902344 Z M 323.1875 220.242188 " clip-rule="nonzero"/></clipPath><clipPath id="056790dcd1"><path d="M 323.84375 235.566406 C 326.734375 231.027344 333.296875 242.351562 332.734375 242.953125 C 332.433594 243.289062 330.40625 241.941406 329.394531 241.191406 C 328.421875 240.441406 327.519531 239.503906 326.808594 238.488281 C 326.132812 237.441406 325.570312 236.238281 325.234375 235.078125 C 324.894531 233.878906 324.746094 232.566406 324.820312 231.328125 C 324.894531 230.089844 325.195312 228.816406 325.644531 227.652344 C 326.09375 226.492188 326.769531 225.367188 327.59375 224.429688 C 328.382812 223.492188 329.394531 222.628906 330.445312 221.992188 C 331.496094 221.351562 332.734375 220.867188 333.933594 220.601562 C 335.132812 220.339844 336.445312 220.265625 337.683594 220.378906 C 338.921875 220.527344 340.195312 220.867188 341.320312 221.390625 C 342.445312 221.914062 343.53125 222.664062 344.433594 223.492188 C 345.332031 224.351562 346.121094 225.402344 346.71875 226.492188 C 347.28125 227.578125 347.695312 228.851562 347.917969 230.054688 C 348.105469 231.289062 348.105469 232.601562 347.917969 233.839844 C 347.695312 235.039062 347.28125 236.316406 346.71875 237.402344 C 346.121094 238.488281 345.332031 239.539062 344.433594 240.402344 C 343.53125 241.226562 342.445312 241.976562 341.320312 242.503906 C 340.195312 243.027344 338.921875 243.363281 337.683594 243.515625 C 336.484375 243.628906 335.132812 243.550781 333.933594 243.289062 C 332.734375 243.027344 331.496094 242.539062 330.445312 241.902344 C 329.394531 241.265625 328.382812 240.402344 327.59375 239.464844 C 326.769531 238.527344 326.09375 237.402344 325.644531 236.238281 C 325.195312 235.113281 324.894531 233.800781 324.820312 232.566406 C 324.746094 231.328125 324.894531 230.015625 325.234375 228.851562 C 325.570312 227.652344 326.132812 226.453125 326.808594 225.441406 C 327.519531 224.390625 328.421875 223.453125 329.394531 222.703125 C 330.371094 221.953125 331.570312 221.316406 332.734375 220.941406 C 333.894531 220.527344 335.207031 220.339844 336.445312 220.339844 C 337.683594 220.339844 338.957031 220.003906 340.15625 220.941406 C 342.820312 223.039062 347.207031 234.589844 347.355469 238.488281 C 347.433594 240.402344 346.417969 241.601562 345.933594 242.839844 C 345.558594 243.816406 345.21875 244.601562 344.730469 245.390625 C 344.246094 246.175781 343.644531 246.925781 342.96875 247.566406 C 342.296875 248.203125 341.546875 248.765625 340.71875 249.253906 C 339.933594 249.703125 339.03125 250.078125 338.171875 250.339844 C 337.269531 250.601562 336.332031 250.753906 335.394531 250.828125 C 334.457031 250.863281 333.519531 250.789062 332.582031 250.601562 C 331.683594 250.414062 330.78125 250.113281 329.957031 249.703125 C 329.09375 249.328125 328.269531 248.800781 327.558594 248.238281 C 326.84375 247.640625 326.171875 246.964844 325.609375 246.214844 C 325.046875 245.464844 324.558594 244.640625 324.21875 243.777344 C 323.84375 242.953125 323.582031 242.015625 323.433594 241.113281 C 323.28125 240.175781 323.207031 239.238281 323.28125 238.300781 C 323.359375 237.363281 323.84375 235.566406 323.84375 235.566406 " clip-rule="nonzero"/></clipPath><clipPath id="a5d7b0e9cc"><path d="M 79.917969 230.960938 L 232.4375 230.960938 L 232.4375 257.90625 L 79.917969 257.90625 Z M 79.917969 230.960938 " clip-rule="nonzero"/></clipPath><clipPath id="19cf25ab0e"><path d="M 220.496094 257.800781 C 139.085938 254.765625 99.300781 254.839844 91.574219 254.316406 C 90.039062 254.238281 89.699219 254.203125 88.800781 253.976562 C 87.898438 253.753906 87 253.414062 86.175781 253.003906 C 85.351562 252.550781 84.5625 252.027344 83.851562 251.390625 C 83.175781 250.789062 82.539062 250.078125 82.011719 249.289062 C 81.488281 248.539062 81.039062 247.675781 80.699219 246.816406 C 80.363281 245.953125 80.136719 245.015625 80.027344 244.113281 C 79.914062 243.175781 79.914062 242.238281 80.027344 241.300781 C 80.136719 240.363281 80.363281 239.464844 80.699219 238.566406 C 81.039062 237.703125 81.488281 236.878906 82.011719 236.089844 C 82.539062 235.339844 83.175781 234.628906 83.851562 233.988281 C 84.5625 233.390625 85.351562 232.828125 86.175781 232.414062 C 87 231.964844 87.898438 231.628906 88.800781 231.402344 C 89.699219 231.175781 90.414062 231.066406 91.574219 231.066406 C 93.488281 231.066406 97.273438 231.402344 99.261719 232.003906 C 100.648438 232.453125 101.585938 233.015625 102.5625 233.800781 C 103.539062 234.550781 104.4375 235.488281 105.148438 236.539062 C 105.824219 237.550781 106.386719 238.753906 106.726562 239.953125 C 107.023438 241.152344 107.175781 242.464844 107.101562 243.703125 C 107.023438 244.902344 106.761719 246.214844 106.273438 247.339844 C 105.824219 248.503906 105.148438 249.628906 104.324219 250.566406 C 103.539062 251.503906 102.523438 252.363281 101.476562 253.003906 C 100.386719 253.640625 99.1875 254.128906 97.949219 254.390625 C 96.75 254.652344 95.4375 254.691406 94.199219 254.578125 C 92.960938 254.425781 91.6875 254.089844 90.601562 253.566406 C 89.476562 253.039062 88.386719 252.289062 87.488281 251.425781 C 86.585938 250.566406 85.800781 249.515625 85.199219 248.425781 C 84.636719 247.339844 84.226562 246.066406 84.039062 244.863281 C 83.8125 243.628906 83.851562 242.316406 84.039062 241.078125 C 84.226562 239.878906 84.675781 238.640625 85.238281 237.515625 C 85.835938 236.425781 86.625 235.378906 87.523438 234.550781 C 88.425781 233.691406 89.550781 232.976562 90.675781 232.453125 C 91.800781 231.925781 93.074219 231.589844 94.273438 231.441406 C 95.511719 231.328125 96.824219 231.402344 98.023438 231.664062 C 99.261719 231.925781 100.460938 232.453125 101.550781 233.089844 C 102.601562 233.726562 103.574219 234.589844 104.398438 235.527344 C 105.1875 236.464844 105.863281 237.589844 106.3125 238.753906 C 106.761719 239.914062 107.0625 241.191406 107.101562 242.425781 C 107.175781 243.664062 107.023438 244.976562 106.6875 246.175781 C 106.351562 247.339844 105.789062 248.539062 105.113281 249.589844 C 104.398438 250.601562 103.5 251.539062 102.488281 252.289062 C 101.511719 253.039062 100.351562 253.640625 99.1875 254.050781 C 97.988281 254.425781 96.710938 254.578125 95.476562 254.652344 C 94.199219 254.691406 92.773438 254.464844 91.574219 254.316406 C 90.5625 254.238281 89.699219 254.203125 88.800781 253.976562 C 87.898438 253.753906 87 253.414062 86.175781 253.003906 C 85.351562 252.550781 84.5625 252.027344 83.851562 251.390625 C 83.175781 250.789062 82.539062 250.078125 82.011719 249.289062 C 81.488281 248.539062 81.039062 247.675781 80.699219 246.816406 C 80.363281 245.953125 80.136719 245.015625 80.027344 244.113281 C 79.914062 243.175781 79.914062 242.238281 80.027344 241.300781 C 80.136719 240.363281 80.363281 239.464844 80.699219 238.566406 C 81.039062 237.703125 81.488281 236.878906 82.011719 236.089844 C 82.539062 235.339844 83.175781 234.628906 83.851562 233.988281 C 84.5625 233.390625 85.351562 232.828125 86.175781 232.414062 C 87 231.964844 87.898438 231.628906 88.800781 231.402344 C 89.699219 231.175781 90.226562 231.140625 91.574219 231.066406 C 94.949219 230.878906 101.925781 231.027344 109.386719 231.101562 C 122.023438 231.214844 142.800781 231.550781 160.574219 232.078125 C 179.886719 232.675781 213.933594 233.878906 221.058594 234.550781 C 222.558594 234.703125 222.933594 234.703125 223.835938 234.964844 C 224.699219 235.191406 225.597656 235.566406 226.421875 236.015625 C 227.210938 236.464844 227.996094 237.027344 228.671875 237.664062 C 229.347656 238.265625 229.984375 239.015625 230.511719 239.800781 C 230.996094 240.550781 231.410156 241.414062 231.746094 242.316406 C 232.046875 243.175781 232.234375 244.113281 232.347656 245.050781 C 232.421875 245.953125 232.421875 246.925781 232.273438 247.828125 C 232.160156 248.765625 231.898438 249.703125 231.523438 250.527344 C 231.183594 251.390625 230.734375 252.253906 230.171875 253.003906 C 229.648438 253.753906 228.972656 254.464844 228.261719 255.066406 C 227.546875 255.628906 226.761719 256.191406 225.933594 256.601562 C 225.109375 257.015625 224.210938 257.316406 223.273438 257.503906 C 222.371094 257.726562 220.496094 257.800781 220.496094 257.800781 " clip-rule="nonzero"/></clipPath><clipPath id="99510b843e"><path d="M 257.703125 213.902344 L 329.476562 213.902344 L 329.476562 241.703125 L 257.703125 241.703125 Z M 257.703125 213.902344 " clip-rule="nonzero"/></clipPath><clipPath id="645245b7c8"><path d="M 266.660156 218.691406 C 275.769531 216.628906 280.269531 215.914062 284.171875 215.539062 C 287.996094 215.164062 291.894531 215.015625 295.757812 214.902344 C 299.660156 214.789062 303.707031 215.128906 307.457031 214.976562 C 310.984375 214.789062 315.109375 213.890625 317.695312 213.964844 C 319.234375 214.003906 320.207031 214.152344 321.40625 214.527344 C 322.570312 214.902344 323.734375 215.539062 324.746094 216.253906 C 325.71875 217.003906 326.65625 217.976562 327.332031 218.992188 C 328.046875 220.003906 328.609375 221.203125 328.945312 222.367188 C 329.28125 223.566406 329.433594 224.878906 329.394531 226.117188 C 329.320312 227.351562 329.058594 228.628906 328.609375 229.789062 C 328.15625 230.953125 327.484375 232.078125 326.695312 233.054688 C 325.90625 233.992188 324.894531 234.851562 323.84375 235.492188 C 322.796875 236.128906 321.558594 236.652344 320.359375 236.914062 C 319.15625 237.175781 317.84375 237.253906 316.609375 237.140625 C 315.371094 237.027344 314.09375 236.691406 312.96875 236.164062 C 311.84375 235.640625 310.757812 234.929688 309.859375 234.066406 C 308.921875 233.242188 308.132812 232.191406 307.535156 231.101562 C 306.972656 230.015625 306.519531 228.777344 306.296875 227.539062 C 306.109375 226.339844 306.109375 224.992188 306.296875 223.789062 C 306.484375 222.554688 306.894531 221.316406 307.457031 220.226562 C 308.019531 219.101562 308.808594 218.054688 309.707031 217.191406 C 310.609375 216.328125 311.695312 215.578125 312.820312 215.054688 C 313.945312 214.527344 315.183594 214.191406 316.421875 214.039062 C 317.65625 213.890625 318.96875 213.964844 320.171875 214.191406 C 321.40625 214.453125 322.609375 214.941406 323.695312 215.578125 C 324.746094 216.214844 325.757812 217.039062 326.582031 217.976562 C 327.371094 218.914062 328.082031 220.039062 328.53125 221.203125 C 329.019531 222.328125 329.28125 223.640625 329.359375 224.878906 C 329.433594 226.117188 329.320312 227.429688 328.984375 228.589844 C 328.683594 229.789062 328.121094 230.992188 327.445312 232.039062 C 326.769531 233.054688 325.871094 234.027344 324.859375 234.777344 C 323.882812 235.527344 322.71875 236.164062 321.558594 236.578125 C 320.394531 236.953125 319.496094 236.988281 317.84375 237.214844 C 314.695312 237.589844 308.394531 237.964844 303.820312 238.152344 C 299.394531 238.300781 295.082031 237.925781 290.769531 238.226562 C 286.496094 238.488281 281.921875 239.203125 278.097656 239.839844 C 274.945312 240.363281 271.496094 241.527344 269.398438 241.601562 C 268.234375 241.640625 267.523438 241.488281 266.621094 241.265625 C 265.722656 241.039062 264.820312 240.703125 263.996094 240.253906 C 263.171875 239.839844 262.382812 239.277344 261.710938 238.675781 C 260.996094 238.039062 260.359375 237.328125 259.835938 236.578125 C 259.308594 235.828125 258.898438 234.964844 258.558594 234.101562 C 258.222656 233.242188 257.996094 232.304688 257.882812 231.367188 C 257.773438 230.464844 257.773438 229.492188 257.882812 228.554688 C 257.996094 227.652344 258.222656 226.714844 258.558594 225.851562 C 258.898438 224.992188 259.347656 224.128906 259.871094 223.378906 C 260.398438 222.589844 261.035156 221.878906 261.746094 221.277344 C 262.421875 220.640625 263.210938 220.117188 264.035156 219.664062 C 264.859375 219.253906 266.660156 218.691406 266.660156 218.691406 " clip-rule="nonzero"/></clipPath><clipPath id="8d0df3a9bf"><path d="M 146.539062 216.917969 L 239.136719 216.917969 L 239.136719 247 L 146.539062 247 Z M 146.539062 216.917969 " clip-rule="nonzero"/></clipPath><clipPath id="ecff989af2"><path d="M 146.625 236.316406 C 146.847656 232.601562 147.300781 231.253906 147.488281 230.839844 C 147.523438 230.691406 147.597656 230.652344 147.636719 230.539062 C 147.710938 230.277344 147.710938 229.714844 147.710938 229.265625 C 147.75 228.816406 147.824219 227.878906 147.824219 227.878906 C 147.824219 227.839844 148.085938 226.976562 148.238281 226.527344 C 148.386719 226.078125 148.648438 225.214844 148.6875 225.214844 C 148.6875 225.179688 149.175781 224.390625 149.398438 224.015625 C 149.660156 223.601562 150.113281 222.816406 150.148438 222.816406 C 150.148438 222.777344 150.785156 222.140625 151.125 221.839844 C 151.460938 221.503906 152.097656 220.867188 152.136719 220.828125 C 152.136719 220.828125 152.925781 220.378906 153.335938 220.117188 C 153.75 219.890625 154.535156 219.402344 154.535156 219.402344 C 154.574219 219.402344 155.4375 219.140625 155.886719 218.992188 C 156.335938 218.878906 157.199219 218.578125 157.234375 218.578125 C 157.234375 218.578125 158.136719 218.539062 158.625 218.503906 C 159.074219 218.503906 160.011719 218.429688 160.011719 218.429688 C 160.046875 218.429688 160.949219 218.617188 161.398438 218.691406 C 161.847656 218.804688 162.75 218.953125 162.785156 218.953125 C 162.785156 218.953125 162.898438 219.066406 163.011719 219.066406 C 163.3125 219.101562 163.984375 218.691406 164.886719 218.539062 C 167.210938 218.203125 173.25 218.390625 177.335938 218.390625 C 181.386719 218.390625 185.324219 218.429688 189.335938 218.503906 C 193.460938 218.578125 197.511719 218.765625 201.785156 218.726562 C 206.246094 218.691406 211.121094 218.539062 215.511719 218.203125 C 219.523438 217.941406 225.746094 217.078125 227.058594 217.003906 C 227.359375 216.964844 227.359375 216.964844 227.546875 217.003906 C 227.921875 217.003906 228.484375 217.117188 228.933594 217.152344 C 229.421875 217.191406 230.324219 217.304688 230.359375 217.304688 C 230.359375 217.304688 231.222656 217.640625 231.671875 217.789062 C 232.085938 217.976562 232.945312 218.277344 232.984375 218.316406 C 232.984375 218.316406 233.734375 218.839844 234.109375 219.101562 C 234.523438 219.367188 235.273438 219.890625 235.273438 219.890625 C 235.308594 219.890625 235.910156 220.566406 236.210938 220.941406 C 236.507812 221.277344 237.148438 221.953125 237.148438 221.992188 C 237.148438 221.992188 237.597656 222.816406 237.785156 223.226562 C 238.007812 223.640625 238.460938 224.429688 238.460938 224.464844 C 238.460938 224.464844 238.683594 225.367188 238.796875 225.816406 C 238.910156 226.265625 239.132812 227.164062 239.132812 227.164062 C 239.132812 227.203125 239.132812 228.101562 239.132812 228.589844 C 239.132812 229.039062 239.132812 229.941406 239.132812 229.976562 C 239.132812 229.976562 238.910156 230.878906 238.796875 231.328125 C 238.722656 231.777344 238.496094 232.675781 238.496094 232.714844 C 238.460938 232.714844 238.046875 233.539062 237.820312 233.953125 C 237.632812 234.363281 237.183594 235.152344 237.183594 235.191406 C 237.183594 235.191406 236.585938 235.902344 236.246094 236.238281 C 235.945312 236.578125 235.347656 237.289062 235.347656 237.289062 C 235.308594 237.289062 234.558594 237.816406 234.183594 238.078125 C 233.808594 238.339844 233.058594 238.863281 233.023438 238.902344 C 233.023438 238.902344 232.160156 239.238281 231.746094 239.390625 C 231.296875 239.539062 230.433594 239.878906 230.433594 239.878906 C 230.398438 239.878906 229.496094 239.988281 229.046875 240.066406 C 228.558594 240.101562 227.660156 240.214844 227.621094 240.253906 C 227.546875 240.253906 219.109375 242.425781 217.683594 242.914062 C 217.273438 243.066406 217.160156 243.175781 216.898438 243.214844 C 216.710938 243.289062 216.523438 243.253906 216.335938 243.253906 C 216.148438 243.289062 215.921875 243.402344 215.660156 243.441406 C 215.324219 243.476562 214.835938 243.402344 214.421875 243.402344 C 213.972656 243.402344 213.484375 243.515625 213.148438 243.476562 C 212.921875 243.476562 212.734375 243.363281 212.546875 243.328125 C 212.324219 243.289062 212.136719 243.328125 211.910156 243.289062 C 211.574219 243.214844 211.121094 242.988281 210.746094 242.839844 C 210.335938 242.726562 209.808594 242.652344 209.511719 242.539062 C 209.285156 242.425781 209.171875 242.277344 208.984375 242.164062 C 208.796875 242.089844 208.535156 242.050781 208.386719 241.941406 C 208.273438 241.902344 208.273438 241.789062 208.121094 241.714844 C 207.597656 241.527344 205.871094 241.828125 204.148438 241.863281 C 200.886719 241.902344 194.660156 241.789062 190.046875 241.753906 C 185.546875 241.714844 179.4375 242.050781 176.734375 241.640625 C 175.535156 241.453125 174.824219 240.777344 174.148438 240.816406 C 173.734375 240.851562 173.136719 241.300781 173.097656 241.300781 C 173.097656 241.300781 172.199219 241.488281 171.75 241.566406 C 171.261719 241.640625 170.398438 241.828125 170.359375 241.828125 C 170.324219 241.828125 169.125 241.640625 168.484375 241.863281 C 167.546875 242.203125 166.574219 243.550781 165.636719 244.226562 C 164.847656 244.828125 164.097656 245.351562 163.273438 245.765625 C 162.449219 246.140625 161.546875 246.476562 160.648438 246.664062 C 159.710938 246.851562 158.773438 246.925781 157.835938 246.890625 C 156.898438 246.890625 155.960938 246.738281 155.0625 246.476562 C 154.160156 246.214844 153.300781 245.878906 152.472656 245.390625 C 151.6875 244.941406 150.898438 244.378906 150.222656 243.738281 C 149.550781 243.101562 148.949219 242.351562 148.425781 241.601562 C 147.9375 240.816406 147.523438 239.953125 147.222656 239.050781 C 146.925781 238.191406 146.625 236.316406 146.625 236.316406 " clip-rule="nonzero"/></clipPath><clipPath id="229a179756"><path d="M 2.875 241.871094 L 94.972656 241.871094 L 94.972656 250.550781 L 2.875 250.550781 Z M 2.875 241.871094 " clip-rule="nonzero"/></clipPath><clipPath id="0a1fafc85d"><path d="M 91.988281 249.363281 C 56.589844 250.488281 52.386719 250.902344 50.511719 250.113281 C 49.652344 249.777344 49.277344 249.175781 48.976562 248.652344 C 48.714844 248.203125 48.675781 247.714844 48.675781 247.265625 C 48.714844 246.777344 48.789062 246.289062 49.089844 245.878906 C 49.386719 245.351562 49.949219 244.902344 50.699219 244.527344 C 51.902344 243.925781 53.625 243.589844 55.761719 243.363281 C 59.324219 242.953125 67.574219 243.628906 70.199219 243.328125 C 71.175781 243.253906 71.550781 242.839844 72.1875 242.914062 C 72.824219 242.988281 73.613281 243.402344 74.0625 243.925781 C 74.511719 244.414062 74.777344 245.316406 74.8125 245.914062 C 74.8125 246.402344 74.699219 246.890625 74.4375 247.300781 C 74.136719 247.828125 73.6875 248.390625 72.863281 248.691406 C 71.101562 249.363281 66.488281 248.988281 63.636719 248.839844 C 61.125 248.691406 59.964844 248.164062 56.625 247.976562 C 48.300781 247.527344 21.789062 248.652344 13.125 248.539062 C 9.453125 248.503906 6.863281 248.765625 5.214844 248.277344 C 4.425781 248.050781 3.941406 247.675781 3.566406 247.300781 C 3.300781 247.039062 3.191406 246.851562 3.078125 246.476562 C 2.925781 245.988281 2.777344 245.164062 2.964844 244.566406 C 3.113281 244.003906 3.527344 243.363281 4.015625 242.988281 C 4.503906 242.613281 5.214844 242.351562 5.8125 242.351562 C 6.414062 242.351562 7.164062 242.578125 7.652344 242.953125 C 8.140625 243.328125 8.550781 244.039062 8.738281 244.527344 C 8.851562 244.863281 8.851562 245.164062 8.851562 245.503906 C 8.8125 245.800781 8.8125 246.101562 8.664062 246.441406 C 8.4375 246.890625 7.953125 247.601562 7.425781 247.902344 C 6.902344 248.238281 6.152344 248.390625 5.550781 248.351562 C 4.953125 248.277344 4.203125 247.863281 3.789062 247.566406 C 3.527344 247.300781 3.378906 247.113281 3.226562 246.777344 C 3.003906 246.289062 2.851562 245.390625 2.890625 244.902344 C 2.925781 244.527344 3.003906 244.265625 3.191406 243.964844 C 3.453125 243.515625 3.976562 242.953125 4.578125 242.652344 C 5.328125 242.277344 6.226562 242.238281 7.5 242.164062 C 9.75 242.015625 12.75 242.503906 16.953125 242.539062 C 25.425781 242.652344 46.3125 241.640625 55.164062 241.976562 C 59.886719 242.128906 62.886719 242.800781 66 242.953125 C 68.363281 243.027344 70.761719 242.539062 72.1875 242.914062 C 73.011719 243.101562 73.613281 243.402344 74.0625 243.925781 C 74.511719 244.414062 74.8125 245.238281 74.8125 245.914062 C 74.8125 246.589844 74.476562 247.378906 74.027344 247.902344 C 73.539062 248.464844 72.976562 248.839844 71.851562 249.140625 C 69.226562 249.890625 61.238281 249.027344 57.449219 249.363281 C 54.902344 249.550781 52.652344 250.566406 51.226562 250.300781 C 50.363281 250.152344 49.800781 249.777344 49.351562 249.253906 C 48.9375 248.765625 48.636719 247.902344 48.675781 247.265625 C 48.714844 246.589844 49.050781 245.765625 49.5 245.277344 C 49.949219 244.789062 50.511719 244.566406 51.414062 244.378906 C 53.363281 243.925781 56.886719 244.527344 60.976562 244.488281 C 68.324219 244.378906 87.636719 242.726562 91.800781 243.363281 C 92.925781 243.515625 93.300781 243.628906 93.824219 244.039062 C 94.351562 244.453125 94.761719 245.316406 94.875 245.914062 C 94.988281 246.402344 94.914062 246.890625 94.761719 247.339844 C 94.613281 247.753906 94.351562 248.203125 93.976562 248.539062 C 93.488281 248.914062 91.988281 249.363281 91.988281 249.363281 " clip-rule="nonzero"/></clipPath><clipPath id="75576bb3a4"><path d="M 2.558594 241.945312 L 9.296875 241.945312 L 9.296875 250.605469 L 2.558594 250.605469 Z M 2.558594 241.945312 " clip-rule="nonzero"/></clipPath><clipPath id="0515847d16"><path d="M 3.378906 248.351562 C 2.664062 243.964844 2.890625 243.550781 3.152344 243.175781 C 3.453125 242.800781 3.789062 242.464844 4.277344 242.277344 C 4.839844 242.015625 5.777344 241.941406 6.375 242.050781 C 6.863281 242.164062 7.277344 242.351562 7.652344 242.765625 C 8.214844 243.363281 8.925781 245.089844 9.078125 245.839844 C 9.152344 246.253906 9.113281 246.476562 9 246.816406 C 8.851562 247.300781 8.515625 248.050781 8.027344 248.464844 C 7.578125 248.839844 6.863281 249.140625 6.265625 249.175781 C 5.664062 249.214844 4.914062 249.027344 4.425781 248.691406 C 3.902344 248.351562 3.453125 247.640625 3.226562 247.152344 C 3.113281 246.816406 3.078125 246.515625 3.078125 246.214844 C 3.078125 245.878906 3.078125 245.578125 3.226562 245.238281 C 3.453125 244.753906 3.976562 244.039062 4.390625 243.703125 C 4.691406 243.476562 4.914062 243.363281 5.253906 243.289062 C 5.777344 243.175781 6.601562 243.175781 7.164062 243.402344 C 7.726562 243.628906 8.328125 244.191406 8.664062 244.640625 C 8.851562 244.902344 8.964844 245.164062 9 245.539062 C 9.078125 246.027344 9 246.925781 8.8125 247.414062 C 8.703125 247.789062 8.550781 247.976562 8.289062 248.238281 C 7.875 248.578125 7.164062 249.027344 6.5625 249.140625 C 6 249.253906 5.214844 249.101562 4.691406 248.839844 C 4.164062 248.539062 3.714844 248.015625 3.378906 247.453125 C 3.003906 246.851562 2.628906 245.953125 2.589844 245.238281 C 2.589844 244.566406 2.851562 243.703125 3.152344 243.175781 C 3.453125 242.765625 3.789062 242.464844 4.277344 242.277344 C 4.839844 242.015625 5.738281 241.863281 6.375 242.050781 C 7.015625 242.238281 7.652344 242.691406 8.101562 243.289062 C 8.664062 244.113281 9.039062 245.878906 9.1875 246.777344 C 9.265625 247.339844 9.339844 247.714844 9.226562 248.203125 C 9.039062 248.800781 8.589844 249.589844 8.0625 250.003906 C 7.5 250.378906 6.640625 250.601562 6 250.566406 C 5.328125 250.488281 4.539062 250.039062 4.089844 249.628906 C 3.714844 249.253906 3.378906 248.351562 3.378906 248.351562 " clip-rule="nonzero"/></clipPath><clipPath id="3bc40108b4"><path d="M 1.835938 240.738281 L 9.339844 240.738281 L 9.339844 250.070312 L 1.835938 250.070312 Z M 1.835938 240.738281 " clip-rule="nonzero"/></clipPath><clipPath id="411005847e"><path d="M 3.714844 248.464844 C 1.800781 243.476562 2.027344 242.726562 2.328125 242.164062 C 2.550781 241.753906 2.964844 241.414062 3.339844 241.191406 C 3.753906 240.964844 4.238281 240.777344 4.726562 240.777344 C 5.328125 240.777344 6.265625 241.078125 6.75 241.453125 C 7.164062 241.753906 7.390625 242.089844 7.613281 242.578125 C 7.953125 243.328125 8.101562 244.640625 8.140625 245.613281 C 8.175781 246.441406 8.25 247.300781 7.988281 247.976562 C 7.765625 248.578125 7.3125 249.175781 6.828125 249.515625 C 6.339844 249.851562 5.589844 250.039062 4.988281 250.039062 C 4.390625 250.003906 3.601562 249.628906 3.191406 249.328125 C 2.890625 249.101562 2.738281 248.914062 2.589844 248.578125 C 2.328125 248.128906 2.140625 247.226562 2.175781 246.703125 C 2.175781 246.328125 2.289062 246.066406 2.402344 245.765625 C 2.550781 245.464844 2.703125 245.203125 2.964844 244.976562 C 3.339844 244.601562 4.050781 244.152344 4.652344 244.078125 C 5.253906 243.964844 6 244.078125 6.5625 244.378906 C 7.089844 244.675781 7.613281 245.203125 7.875 245.765625 C 8.101562 246.328125 8.214844 247.078125 8.0625 247.675781 C 7.953125 248.277344 7.539062 248.914062 7.089844 249.328125 C 6.640625 249.703125 5.890625 250.003906 5.289062 250.039062 C 4.691406 250.039062 3.976562 249.851562 3.453125 249.515625 C 2.964844 249.175781 2.550781 248.691406 2.289062 247.976562 C 1.878906 246.816406 1.726562 243.925781 2.027344 242.839844 C 2.175781 242.238281 2.402344 241.941406 2.777344 241.601562 C 3.226562 241.226562 4.050781 240.816406 4.726562 240.777344 C 5.402344 240.738281 6.265625 241.078125 6.75 241.453125 C 7.164062 241.753906 7.3125 242.089844 7.613281 242.578125 C 8.101562 243.441406 9 245.203125 9.1875 246.140625 C 9.339844 246.703125 9.339844 247.113281 9.265625 247.566406 C 9.152344 248.015625 8.925781 248.503906 8.625 248.878906 C 8.328125 249.214844 7.914062 249.550781 7.5 249.738281 C 7.050781 249.890625 6.527344 250.003906 6.078125 249.964844 C 5.589844 249.925781 5.101562 249.738281 4.691406 249.476562 C 4.316406 249.253906 3.714844 248.464844 3.714844 248.464844 " clip-rule="nonzero"/></clipPath></defs><path fill="#606060" d="M 168.960938 147.316406 L 169 149.308594 C 169.113281 156.675781 169.597656 162.765625 170.515625 168.472656 L 170.566406 168.769531 L 170.875 168.796875 C 172.515625 168.957031 174.121094 169.042969 175.773438 169.09375 L 176.320312 169.117188 L 175.414062 165.960938 C 173.796875 160.382812 172.121094 154.589844 169.757812 149.144531 L 168.960938 147.316406 " fill-opacity="1" fill-rule="nonzero"/><path fill="#606060" d="M 121.746094 211.925781 L 121.855469 212.160156 L 122.117188 212.148438 C 125.039062 212.074219 128.019531 212.085938 130.890625 212.109375 C 135.042969 212.136719 139.34375 212.160156 143.570312 211.886719 L 143.941406 211.863281 L 143.941406 211.488281 C 143.941406 210.929688 143.96875 210.371094 143.992188 209.8125 L 144.015625 209.339844 L 143.542969 209.402344 C 137.378906 210.171875 130.78125 210.148438 123.371094 209.328125 L 123 209.289062 L 122.9375 209.664062 C 122.839844 210.285156 122.476562 210.832031 121.957031 211.140625 L 121.804688 211.203125 L 121.582031 211.425781 L 121.644531 211.652344 C 121.667969 211.75 121.707031 211.835938 121.746094 211.925781 " fill-opacity="1" fill-rule="nonzero"/><path fill="#606060" d="M 166.574219 166.0625 C 166.824219 166.097656 167.046875 166.171875 167.273438 166.261719 L 168.054688 166.570312 L 167.957031 165.863281 C 167.234375 160.417969 166.863281 154.515625 166.8125 147.804688 L 166.800781 147.441406 L 166.453125 147.40625 C 165.679688 147.332031 165.046875 147.242188 164.449219 147.144531 L 164.386719 147.132812 L 164.339844 147.144531 C 163.917969 147.195312 163.492188 147.230469 163.070312 147.257812 L 162.722656 147.28125 L 162.699219 147.628906 C 162.5625 149.828125 162.535156 152.066406 162.511719 154.230469 C 162.472656 157.808594 162.449219 161.511719 161.878906 165.128906 L 161.816406 165.539062 L 162.238281 165.589844 C 163.679688 165.738281 165.148438 165.898438 166.574219 166.0625 " fill-opacity="1" fill-rule="nonzero"/><path fill="#606060" d="M 207.019531 163.824219 C 207.082031 163.824219 207.132812 163.835938 207.183594 163.835938 C 207.121094 160.777344 206.621094 157.25 204.285156 157.1875 C 200.84375 157.085938 200.496094 160.59375 200.707031 163.824219 C 202.421875 163.824219 205.453125 163.824219 207.019531 163.824219 " fill-opacity="1" fill-rule="nonzero"/><path fill="#606060" d="M 197.945312 175.097656 L 198.046875 175.371094 L 198.332031 175.359375 C 203.550781 175.160156 209.246094 175.382812 215.273438 176.015625 L 215.78125 176.078125 L 215.707031 175.570312 C 215.507812 174.226562 215.136719 172.835938 214.578125 171.320312 L 214.488281 171.058594 L 214.203125 171.058594 C 211.023438 171.070312 207.839844 171.121094 204.644531 171.15625 C 202.210938 171.183594 199.761719 171.21875 197.324219 171.230469 L 196.929688 171.246094 L 196.929688 171.628906 C 196.929688 171.828125 196.902344 172.015625 196.851562 172.1875 L 196.804688 172.339844 L 196.867188 172.476562 C 197.25 173.308594 197.613281 174.191406 197.945312 175.097656 " fill-opacity="1" fill-rule="nonzero"/><path fill="#606060" d="M 200.59375 166.695312 L 200.644531 167.042969 L 207.566406 166.980469 L 207.578125 166.609375 C 207.605469 166.261719 207.605469 165.863281 207.605469 165.453125 L 207.605469 165.054688 L 207.207031 165.054688 C 207.144531 165.054688 207.09375 165.066406 207.019531 165.078125 L 200.394531 165.078125 L 200.445312 165.515625 C 200.496094 165.9375 200.542969 166.335938 200.59375 166.695312 " fill-opacity="1" fill-rule="nonzero"/><path fill="#606060" d="M 164.585938 110.9375 L 164.4375 110.691406 L 156.78125 110.691406 L 156.671875 110.886719 C 155.863281 112.316406 155.425781 114.355469 155.328125 117.101562 L 155.316406 117.511719 L 155.726562 117.511719 C 156.929688 117.511719 158.125 117.5 159.328125 117.488281 C 161.679688 117.449219 164.101562 117.425781 166.488281 117.511719 L 167.074219 117.527344 L 166.886719 116.980469 C 166.226562 115.152344 165.519531 113.324219 164.824219 111.546875 L 164.585938 110.9375 " fill-opacity="1" fill-rule="nonzero"/><path fill="#606060" d="M 141.269531 193.367188 C 145.421875 193.304688 149.710938 193.242188 153.921875 193.230469 L 154.457031 193.242188 L 154.457031 192.847656 C 154.457031 192.535156 154.484375 192.238281 154.496094 191.863281 L 154.507812 191.441406 L 126.652344 191.441406 L 126.441406 192.199219 C 126.355469 192.472656 126.28125 192.746094 126.21875 193.019531 L 126.105469 193.503906 L 126.605469 193.503906 C 131.5 193.503906 136.472656 193.441406 141.269531 193.367188 " fill-opacity="1" fill-rule="nonzero"/><path fill="#606060" d="M 122.378906 196.960938 C 122.503906 198.8125 122.738281 200.664062 122.976562 202.464844 C 123.160156 203.90625 123.359375 205.398438 123.484375 206.867188 L 123.523438 207.1875 L 123.84375 207.226562 C 127.460938 207.613281 130.929688 207.796875 134.222656 207.796875 C 135.800781 207.796875 137.34375 207.761719 138.820312 207.660156 L 139.195312 207.648438 L 139.195312 207.277344 C 139.207031 206.617188 139.230469 205.957031 139.257812 205.300781 C 139.367188 202.15625 139.46875 198.898438 138.398438 195.867188 L 138.3125 195.59375 L 138.027344 195.59375 C 133.640625 195.65625 128.941406 195.71875 124.265625 195.679688 L 124.15625 195.679688 L 124.054688 195.742188 C 123.945312 195.816406 123.808594 195.867188 123.671875 195.929688 C 123.296875 196.078125 122.925781 196.226562 122.578125 196.402344 L 122.351562 196.5 L 122.367188 196.949219 L 122.378906 196.960938 " fill-opacity="1" fill-rule="nonzero"/><path fill="#606060" d="M 155.652344 189.464844 C 156.371094 189.464844 157.117188 190.074219 157.117188 190.832031 C 157.140625 190.957031 157.140625 191.082031 157.117188 191.207031 C 157.019531 192.472656 156.992188 193.589844 156.992188 195.132812 C 156.992188 195.417969 156.894531 195.617188 156.769531 195.804688 C 158.039062 195.828125 159.304688 195.867188 160.574219 195.867188 C 160.574219 192.050781 160.609375 188.757812 160.683594 185.949219 C 160.910156 182.515625 161.070312 179.957031 161.417969 177.929688 C 162.214844 173.878906 162.734375 172.414062 163.058594 172.476562 C 163.40625 172.535156 163.492188 174.054688 163.15625 178.042969 C 163.046875 180.042969 163.058594 182.617188 162.972656 185.996094 C 162.996094 188.757812 163.019531 192.027344 163.046875 195.804688 C 164.164062 195.730469 165.285156 195.628906 166.390625 195.429688 C 166.726562 195.367188 167.023438 195.382812 167.296875 195.429688 C 167.695312 195.171875 168.105469 194.957031 168.515625 194.773438 C 168.824219 182.082031 179.640625 176.824219 193.175781 175.359375 C 193 174.910156 192.777344 174.488281 192.566406 174.054688 C 184.5625 173.492188 176.496094 174.140625 168.488281 173.082031 C 167.730469 172.984375 167.136719 172.613281 166.738281 172.101562 C 166.378906 171.777344 166.078125 171.355469 165.890625 170.859375 C 165.878906 170.796875 165.867188 170.785156 165.84375 170.734375 C 165.816406 170.660156 165.78125 170.597656 165.753906 170.511719 C 155.140625 169.292969 144.527344 167.9375 133.972656 170.101562 C 132.257812 174.949219 130.554688 179.796875 129.027344 184.667969 C 139.046875 185.101562 146.066406 185.511719 150.40625 185.898438 C 155.152344 186.308594 156.746094 186.695312 156.746094 187.027344 C 156.746094 187.378906 155.152344 187.625 150.355469 187.652344 C 145.820312 187.675781 138.671875 187.527344 128.257812 187.117188 C 127.957031 188.136719 127.671875 189.167969 127.398438 190.199219 C 136.113281 190.199219 145.808594 190.199219 154.433594 190.199219 C 154.679688 189.761719 155.089844 189.464844 155.652344 189.464844 " fill-opacity="1" fill-rule="nonzero"/><path fill="#606060" d="M 141.355469 207.460938 L 141.804688 207.414062 C 142.289062 207.375 142.75 207.3125 143.222656 207.25 L 144.179688 207.125 L 144.203125 206.816406 C 144.242188 206.566406 144.316406 206.320312 144.464844 206.019531 C 145.917969 203.3125 148.105469 201.335938 150.417969 199.246094 C 150.988281 198.726562 151.574219 198.203125 152.144531 197.667969 L 152.21875 197.59375 L 152.257812 197.496094 C 152.308594 197.308594 152.480469 197.097656 152.628906 196.921875 C 152.828125 196.660156 153.027344 196.425781 153.027344 196.140625 L 153.027344 195.417969 L 152.628906 195.417969 C 149.3125 195.429688 144.835938 195.480469 140.960938 195.542969 L 140.4375 195.554688 L 140.574219 196.050781 C 141.542969 199.371094 141.46875 202.976562 141.382812 206.441406 L 141.355469 207.460938 " fill-opacity="1" fill-rule="nonzero"/><path fill="#606060" d="M 153.351562 145.480469 L 153.636719 145.207031 C 154.867188 144.074219 155.960938 142.757812 157.003906 141.488281 C 157.402344 141.003906 157.800781 140.519531 158.210938 140.046875 L 158.722656 139.449219 L 157.9375 139.402344 C 156.945312 139.328125 155.949219 139.226562 154.96875 139.128906 C 152.78125 138.917969 150.515625 138.703125 148.28125 138.703125 L 147.746094 138.753906 L 147.820312 139.214844 C 147.832031 139.300781 147.832031 139.386719 147.832031 139.464844 L 147.859375 139.601562 C 148.453125 141.253906 149.847656 142.394531 151.199219 143.515625 C 151.898438 144.074219 152.53125 144.597656 153.078125 145.191406 L 153.351562 145.480469 " fill-opacity="1" fill-rule="nonzero"/><path fill="#606060" d="M 155.824219 157.3125 C 155.550781 159.3125 155.203125 161.699219 154.394531 164.421875 C 156.046875 164.542969 157.6875 164.695312 159.34375 164.878906 C 160.347656 158.753906 159.691406 152.550781 160.210938 146.386719 C 160.273438 145.566406 160.871094 145.117188 161.515625 145.007812 C 161.679688 144.90625 161.867188 144.832031 162.078125 144.808594 C 161.777344 143.566406 161.230469 142.410156 160.421875 141.4375 C 158.449219 143.675781 156.65625 146.101562 154.332031 147.988281 C 154.257812 148.164062 154.195312 148.324219 154.085938 148.5 C 152.058594 153.558594 151.003906 158.914062 149.449219 164.132812 C 150.257812 164.171875 151.0625 164.195312 151.859375 164.246094 C 152.730469 161.535156 153.175781 159.039062 153.574219 156.949219 C 154.035156 154.464844 154.433594 152.488281 154.816406 150.996094 C 155.613281 148 156.320312 146.984375 156.621094 147.058594 C 156.980469 147.179688 156.882812 148.324219 156.558594 151.308594 C 156.371094 152.8125 156.171875 154.777344 155.824219 157.3125 " fill-opacity="1" fill-rule="nonzero"/><path fill="#606060" d="M 223.511719 188.183594 C 215.757812 188.410156 207.742188 188.644531 199.886719 187.625 L 199.511719 187.574219 L 199.449219 187.9375 C 199.390625 188.210938 199.351562 188.445312 199.339844 188.71875 L 199.3125 189.140625 L 199.722656 189.140625 C 206.449219 189.214844 213.285156 189.453125 219.898438 189.675781 C 226.820312 189.925781 233.980469 190.171875 241.039062 190.222656 L 241.375 190.234375 L 241.4375 189.886719 C 241.5 189.464844 241.585938 189.066406 241.660156 188.65625 L 241.746094 188.210938 L 241.289062 188.183594 C 235.359375 187.824219 229.332031 188.011719 223.511719 188.183594 " fill-opacity="1" fill-rule="nonzero"/><path fill="#606060" d="M 246.234375 203.785156 L 246.53125 205.660156 L 246.867188 205.671875 C 249.566406 205.734375 252.285156 205.808594 254.996094 205.835938 L 255.371094 205.847656 L 255.394531 205.460938 C 255.554688 202.566406 254.449219 200.664062 252.089844 199.804688 C 250.644531 199.273438 249.15625 198.972656 247.898438 198.75 L 247.835938 198.738281 L 247.761719 198.75 C 247.242188 198.835938 246.71875 198.910156 246.210938 198.972656 L 245.5625 199.074219 L 245.601562 199.457031 C 245.785156 200.898438 246.011719 202.339844 246.234375 203.785156 " fill-opacity="1" fill-rule="nonzero"/><path fill="#606060" d="M 240.765625 192.386719 C 239.980469 192.386719 239.199219 192.359375 238.417969 192.347656 C 237.871094 192.335938 237.324219 192.324219 236.777344 192.324219 L 236.367188 192.3125 L 236.378906 192.722656 C 236.402344 193.777344 236.414062 194.820312 236.425781 195.828125 L 236.441406 196.636719 L 236.851562 196.625 C 238.167969 196.585938 239.496094 196.5625 240.816406 196.539062 L 241.226562 196.539062 L 241.210938 196.113281 C 241.136719 195.035156 241.125 193.914062 241.164062 192.796875 L 241.175781 192.386719 L 240.765625 192.386719 " fill-opacity="1" fill-rule="nonzero"/><path fill="#606060" d="M 233.828125 192.261719 C 232.261719 192.238281 230.699219 192.199219 229.132812 192.148438 L 228.585938 192.136719 L 228.734375 192.660156 C 229.007812 193.605469 229.230469 194.585938 229.441406 195.542969 L 229.726562 196.8125 L 234.265625 196.699219 L 234.265625 196.3125 C 234.265625 195.132812 234.253906 193.878906 234.214844 192.660156 L 234.203125 192.273438 L 233.828125 192.261719 " fill-opacity="1" fill-rule="nonzero"/><path fill="#606060" d="M 257.570312 205.449219 L 257.542969 205.871094 L 258.378906 205.871094 C 259.867188 205.882812 261.359375 205.910156 262.863281 205.910156 L 263.285156 205.835938 L 263.261719 205.425781 C 263.027344 200.972656 260.414062 198.636719 255.292969 198.289062 L 253.953125 198.191406 L 255.019531 199 C 257.34375 200.761719 257.695312 203.472656 257.570312 205.449219 " fill-opacity="1" fill-rule="nonzero"/><path fill="#606060" d="M 274.871094 205.226562 L 274.710938 205.847656 L 279.308594 205.785156 L 279.308594 205.398438 C 279.359375 203.734375 279.007812 202.128906 278.25 200.476562 L 278.152344 200.253906 L 277.914062 200.242188 C 276.945312 200.191406 275.925781 200.105469 274.621094 199.96875 L 273.9375 199.894531 L 274.210938 200.527344 C 274.847656 201.929688 275.070312 203.535156 274.871094 205.226562 " fill-opacity="1" fill-rule="nonzero"/><path fill="#606060" d="M 267.402344 205.363281 L 267.386719 205.882812 L 267.785156 205.882812 C 269.289062 205.882812 270.804688 205.882812 272.308594 205.871094 L 272.707031 205.871094 L 272.707031 205.472656 C 272.695312 205.386719 272.683594 205.335938 272.683594 205.363281 C 273.03125 202.664062 272.347656 200.6875 270.683594 199.644531 L 270.519531 199.59375 C 269.089844 199.433594 267.597656 199.296875 266.355469 199.496094 L 265.820312 199.582031 L 266.070312 200.066406 C 266.839844 201.570312 267.277344 203.3125 267.402344 205.363281 " fill-opacity="1" fill-rule="nonzero"/><path fill="#606060" d="M 198.382812 198.042969 L 198.382812 202.203125 L 198.71875 202.253906 C 199.328125 202.355469 199.972656 202.402344 200.667969 202.402344 C 201.476562 202.402344 202.347656 202.339844 203.316406 202.203125 L 203.675781 202.167969 L 203.664062 201.808594 C 203.628906 200.664062 203.628906 199.546875 203.628906 198.4375 L 203.628906 198.042969 L 198.382812 198.042969 " fill-opacity="1" fill-rule="nonzero"/><path fill="#606060" d="M 180.136719 183.636719 C 176.59375 185.675781 174.355469 188.457031 173.472656 191.925781 L 173.351562 192.410156 L 173.859375 192.421875 C 177.351562 192.449219 180.992188 192.484375 184.5625 191.527344 L 184.660156 191.539062 L 184.757812 191.453125 L 184.921875 191.503906 C 185.46875 191.515625 185.765625 191.964844 185.867188 192.324219 C 185.953125 192.710938 185.878906 193.21875 185.394531 193.492188 L 185.195312 193.605469 L 185.195312 195.753906 L 185.941406 194.449219 C 186.386719 193.667969 186.898438 192.894531 187.394531 192.136719 C 188.015625 191.207031 188.664062 190.234375 189.195312 189.230469 C 189.296875 189.03125 189.40625 188.929688 189.53125 188.832031 L 189.621094 188.746094 C 189.816406 188.496094 190.105469 188.382812 190.425781 188.382812 C 191.894531 188.445312 193.371094 188.484375 194.839844 188.507812 L 196.714844 188.558594 L 196.777344 188.222656 C 196.929688 187.476562 197.175781 186.769531 197.550781 186.121094 C 197.636719 185.960938 197.75 185.847656 197.933594 185.75 L 198.023438 185.6875 C 198.308594 185.402344 198.644531 185.300781 199.015625 185.351562 C 207.257812 186.59375 215.644531 186.320312 223.761719 186.046875 C 229.195312 185.859375 234.800781 185.675781 240.292969 185.949219 L 241.089844 185.984375 L 240.367188 184.902344 L 240.21875 184.867188 C 229.429688 181.796875 195.226562 174.960938 180.136719 183.636719 " fill-opacity="1" fill-rule="nonzero"/><path fill="#606060" d="M 226.261719 192.0625 L 222.691406 191.9375 L 222.730469 192.386719 C 222.753906 192.832031 222.78125 193.292969 222.792969 193.742188 C 222.828125 194.671875 222.855469 195.628906 223.027344 196.574219 L 223.089844 196.910156 L 223.425781 196.910156 C 224.605469 196.910156 225.789062 196.886719 227.019531 196.871094 L 227.503906 196.859375 L 227.402344 196.386719 C 227.066406 194.859375 226.78125 193.589844 226.347656 192.324219 L 226.261719 192.0625 " fill-opacity="1" fill-rule="nonzero"/><path fill="#606060" d="M 190.925781 190.558594 L 190.800781 190.769531 C 190.363281 191.539062 189.855469 192.300781 189.359375 193.019531 C 188.773438 193.890625 188.152344 194.796875 187.667969 195.742188 L 187.34375 196.363281 L 188.039062 196.324219 C 189.195312 196.265625 190.378906 196.265625 191.519531 196.265625 C 192.824219 196.25 194.179688 196.25 195.511719 196.164062 L 195.882812 196.140625 L 195.882812 190.695312 L 195.199219 190.683594 C 193.859375 190.644531 192.515625 190.621094 191.160156 190.570312 L 190.925781 190.558594 " fill-opacity="1" fill-rule="nonzero"/><path fill="#606060" d="M 174.207031 197.480469 C 175.585938 197.480469 176.980469 197.46875 178.371094 197.457031 C 180.222656 197.457031 182.085938 197.433594 183.9375 197.445312 L 184.335938 197.445312 L 184.335938 193.804688 L 183.863281 193.914062 C 180.609375 194.597656 177.253906 194.625 173.785156 194.597656 L 173.351562 194.585938 L 173.386719 195.019531 C 173.425781 195.628906 173.511719 196.425781 173.808594 197.144531 L 173.808594 197.480469 L 174.207031 197.480469 " fill-opacity="1" fill-rule="nonzero"/><path fill="#606060" d="M 220.53125 192.199219 L 220.480469 191.863281 L 220.15625 191.851562 C 219.351562 191.828125 218.554688 191.800781 217.746094 191.777344 C 216.988281 191.753906 216.21875 191.726562 215.460938 191.691406 L 215.023438 191.675781 L 215.050781 192.101562 C 215.097656 193.53125 215.160156 194.945312 215.25 196.363281 L 215.261719 196.722656 L 215.621094 196.734375 C 217.1875 196.824219 218.816406 196.871094 220.429688 196.886719 L 220.878906 196.898438 L 220.828125 196.449219 C 220.765625 195.839844 220.742188 195.230469 220.71875 194.636719 C 220.691406 193.828125 220.65625 193.007812 220.53125 192.199219 " fill-opacity="1" fill-rule="nonzero"/><path fill="#606060" d="M 212.863281 191.601562 L 212.488281 191.589844 C 210.699219 191.527344 208.882812 191.492188 207.09375 191.441406 L 206.175781 191.417969 L 206.136719 191.777344 C 205.988281 193.03125 205.925781 194.300781 205.875 195.367188 L 205.863281 195.71875 L 206.210938 195.777344 C 208.488281 196.152344 210.738281 196.363281 212.636719 196.523438 L 213.097656 196.5625 L 213.074219 196.101562 C 212.984375 194.722656 212.925781 193.355469 212.875 191.976562 L 212.863281 191.601562 " fill-opacity="1" fill-rule="nonzero"/><path fill="#606060" d="M 176.582031 206.816406 L 175.75 206.777344 L 176.246094 207.449219 C 176.707031 208.082031 177.253906 208.691406 177.863281 209.238281 L 177.960938 209.339844 L 178.097656 209.351562 C 180.792969 209.585938 183.515625 209.675781 186.226562 209.675781 C 190.289062 209.675781 194.34375 209.476562 198.308594 209.277344 C 201.527344 209.117188 204.871094 208.953125 208.152344 208.902344 L 208.425781 208.902344 L 208.511719 208.644531 C 208.660156 208.246094 208.847656 207.886719 209.046875 207.511719 L 209.371094 206.929688 L 208.699219 206.914062 C 205.117188 206.902344 201.5 206.953125 197.996094 206.988281 C 190.972656 207.066406 183.714844 207.152344 176.582031 206.816406 " fill-opacity="1" fill-rule="nonzero"/><path fill="#606060" d="M 203.476562 191.378906 C 201.910156 191.34375 200.359375 191.316406 198.78125 191.292969 L 198.382812 191.292969 L 198.382812 197.183594 L 203.628906 197.183594 L 203.640625 196.796875 C 203.703125 195.046875 203.800781 193.367188 203.949219 191.8125 L 203.914062 191.390625 L 203.476562 191.378906 " fill-opacity="1" fill-rule="nonzero"/><path fill="#606060" d="M 13.734375 227.226562 L 13.722656 228.292969 L 13.574219 228.964844 L 14.070312 228.964844 C 14.457031 228.953125 14.839844 228.953125 15.226562 228.941406 C 15.648438 228.941406 16.070312 228.941406 16.496094 228.925781 L 16.890625 228.914062 L 16.867188 226.925781 C 16.832031 225.039062 16.792969 223.085938 16.890625 221.183594 L 16.917969 220.722656 L 16.457031 220.761719 C 15.875 220.824219 15.289062 220.886719 14.703125 220.960938 L 13.3125 221.109375 L 13.414062 221.542969 C 13.824219 223.382812 13.785156 225.25 13.734375 227.226562 " fill-opacity="1" fill-rule="nonzero"/><path fill="#606060" d="M 8.839844 231.226562 L 8.839844 233.675781 L 9.234375 233.675781 C 10.902344 233.6875 12.554688 233.726562 14.21875 233.761719 C 16.308594 233.8125 18.484375 233.863281 20.609375 233.863281 L 20.945312 233.863281 L 21.007812 233.527344 C 21.117188 232.832031 21.230469 232.160156 21.367188 231.476562 L 21.453125 230.992188 L 20.96875 231.003906 C 17.253906 231.027344 13.25 231.078125 9.222656 231.214844 L 8.839844 231.226562 " fill-opacity="1" fill-rule="nonzero"/><path fill="#606060" d="M 34.105469 225 C 34.15625 226.117188 34.195312 227.273438 34.15625 228.40625 L 34.144531 228.828125 L 34.566406 228.816406 C 36.035156 228.777344 37.5 228.742188 38.980469 228.703125 L 39.363281 228.691406 L 39.363281 228.304688 C 39.375 227.671875 39.414062 227.027344 39.4375 226.378906 C 39.539062 224.378906 39.636719 222.304688 39.042969 220.328125 L 38.953125 220.039062 L 38.320312 220.039062 C 37.039062 220.015625 35.773438 220.003906 34.503906 220.003906 L 34.105469 220.003906 L 34.105469 220.402344 L 34.121094 220.527344 C 34.007812 222.03125 34.058594 223.535156 34.105469 225 " fill-opacity="1" fill-rule="nonzero"/><path fill="#606060" d="M 11.226562 229.015625 L 11.683594 229.003906 L 11.609375 228.542969 C 11.597656 228.492188 11.585938 228.441406 11.574219 228.394531 C 11.558594 228.34375 11.546875 228.320312 11.546875 228.304688 C 11.546875 227.773438 11.574219 227.226562 11.597656 226.679688 C 11.683594 225.023438 11.757812 223.308594 11.300781 221.695312 L 11.210938 221.359375 L 10.863281 221.40625 C 10.082031 221.53125 9.3125 221.65625 8.539062 221.792969 L 7.199219 222.015625 L 7.199219 229.125 L 7.609375 229.113281 C 8.800781 229.0625 10.019531 229.027344 11.226562 229.015625 " fill-opacity="1" fill-rule="nonzero"/><path fill="#606060" d="M 26.847656 223.820312 C 26.8125 225.371094 26.773438 226.976562 27.046875 228.554688 L 27.097656 228.878906 L 27.433594 228.878906 C 28.824219 228.878906 30.203125 228.867188 31.597656 228.839844 L 31.96875 228.839844 L 31.980469 228.457031 C 32.019531 227.300781 31.980469 226.132812 31.945312 225 C 31.882812 223.546875 31.832031 222.054688 31.945312 220.550781 L 31.96875 220.015625 L 31.570312 220.027344 C 30.117188 220.039062 28.664062 220.078125 27.207031 220.128906 L 26.796875 220.140625 L 26.824219 220.550781 C 26.898438 221.632812 26.871094 222.75 26.847656 223.820312 " fill-opacity="1" fill-rule="nonzero"/><path fill="#606060" d="M 19.054688 228.515625 L 19.066406 228.914062 L 19.453125 228.914062 C 20.285156 228.914062 21.117188 228.902344 21.949219 228.902344 C 22.785156 228.902344 23.617188 228.890625 24.449219 228.890625 L 24.898438 228.890625 L 24.847656 228.457031 C 24.710938 227.199219 24.734375 225.90625 24.773438 224.652344 C 24.796875 223.320312 24.835938 221.941406 24.660156 220.574219 L 24.625 220.203125 L 24.25 220.226562 C 22.648438 220.300781 21.042969 220.402344 19.453125 220.527344 L 19.105469 220.550781 L 19.078125 220.886719 C 18.941406 222.851562 18.992188 224.851562 19.03125 226.789062 C 19.042969 227.363281 19.054688 227.945312 19.054688 228.515625 " fill-opacity="1" fill-rule="nonzero"/><path fill="#606060" d="M 122.378906 220.847656 L 122.367188 221.269531 L 122.789062 221.257812 C 125.484375 221.257812 128.21875 221.257812 131.054688 221.269531 C 133.015625 221.269531 135.019531 221.285156 137.082031 221.285156 L 137.21875 221.285156 L 137.332031 221.195312 C 139.367188 219.628906 141.59375 218.351562 143.742188 217.109375 L 143.941406 216.996094 L 143.941406 216.757812 C 143.941406 216.375 143.941406 215.988281 143.941406 215.605469 C 143.929688 215.21875 143.929688 214.84375 143.929688 214.460938 L 143.929688 214.023438 L 143.507812 214.0625 C 139.355469 214.324219 135.128906 214.296875 131.027344 214.273438 C 128.34375 214.261719 125.558594 214.238281 122.824219 214.3125 L 122.390625 214.3125 L 122.441406 214.746094 C 122.601562 216.3125 122.515625 218.003906 122.441406 219.628906 C 122.429688 220.039062 122.402344 220.449219 122.378906 220.847656 " fill-opacity="1" fill-rule="nonzero"/><path fill="#606060" d="M 341.550781 228.628906 L 341.578125 227.746094 L 341.128906 227.785156 C 340.757812 227.820312 340.371094 227.832031 339.960938 227.832031 L 339.625 227.832031 L 339.5625 228.167969 C 339.304688 229.746094 338.246094 231.648438 336.109375 231.824219 C 335.164062 231.898438 334.195312 231.425781 333.597656 230.582031 C 333.226562 230.035156 333.050781 229.375 333.015625 228.46875 L 332.988281 228.046875 L 332.566406 228.082031 C 332.070312 228.132812 331.585938 228.167969 331.074219 228.183594 L 330.703125 228.195312 L 330.703125 228.679688 C 330.703125 229.5625 330.714844 230.445312 330.726562 231.328125 C 330.777344 234.320312 330.8125 237.417969 330.652344 240.460938 L 330.628906 240.921875 L 331.085938 240.871094 C 331.273438 240.859375 331.460938 240.847656 331.609375 240.847656 C 331.722656 240.835938 331.832031 240.835938 331.921875 240.820312 L 332.179688 240.808594 L 332.269531 240.5625 C 332.851562 238.820312 334.519531 237.15625 336.667969 237.316406 C 338.667969 237.480469 340.097656 238.796875 340.410156 240.773438 L 340.457031 241.109375 L 340.808594 241.109375 C 340.96875 241.109375 341.128906 241.109375 341.277344 241.09375 C 341.429688 241.09375 341.566406 241.09375 341.6875 241.09375 L 342.175781 241.09375 L 342.085938 240.625 C 341.328125 236.683594 341.441406 232.59375 341.550781 228.628906 " fill-opacity="1" fill-rule="nonzero"/><path fill="#606060" d="M 343.527344 243.433594 C 343.355469 243.507812 343.15625 243.582031 342.945312 243.59375 C 341.675781 243.691406 338.878906 243.691406 338.878906 243.691406 C 337.6875 243.691406 337.375 242.175781 337.886719 241.308594 C 337.800781 240.523438 337.4375 239.839844 336.507812 239.890625 C 335.25 239.941406 334.703125 240.972656 334.542969 242.089844 C 334.40625 242.996094 333.683594 243.269531 332.988281 243.121094 C 332.789062 243.269531 332.578125 243.382812 332.28125 243.382812 C 332.28125 243.394531 330.453125 243.394531 329.433594 243.644531 C 327.769531 244.054688 326.875 241.804688 328.066406 241.007812 C 328.304688 237.070312 328.179688 233.140625 328.128906 229.199219 C 328.128906 229.175781 328.117188 229.152344 328.117188 229.125 C 328.128906 228.976562 328.128906 228.828125 328.128906 228.679688 C 328.128906 228.441406 328.128906 228.230469 328.117188 228.007812 C 328.117188 227.910156 328.167969 227.832031 328.167969 227.757812 C 328.179688 227.523438 328.191406 227.300781 328.230469 227.074219 C 328.328125 226.269531 328.824219 225.585938 329.707031 225.585938 C 329.757812 225.585938 329.808594 225.609375 329.871094 225.632812 C 329.957031 225.609375 330.019531 225.585938 330.117188 225.597656 C 331.460938 225.660156 332.789062 225.496094 334.132812 225.386719 C 334.941406 225.3125 335.625 226.105469 335.625 226.863281 C 335.625 226.953125 335.574219 227.027344 335.574219 227.113281 C 335.574219 227.261719 335.597656 227.410156 335.5625 227.574219 C 335.523438 227.859375 335.523438 228.480469 335.5625 228.59375 C 335.574219 228.667969 335.722656 229.078125 335.660156 229.027344 C 335.722656 229.101562 335.824219 229.25 335.75 229.1875 C 335.773438 229.226562 335.796875 229.25 335.808594 229.277344 C 335.824219 229.277344 335.824219 229.300781 335.824219 229.300781 C 335.847656 229.300781 335.824219 229.375 335.847656 229.375 C 335.859375 229.386719 335.859375 229.5 335.871094 229.5 C 335.886719 229.5 335.886719 229.746094 335.886719 229.746094 C 335.910156 229.746094 335.910156 229.746094 335.910156 229.746094 C 335.945312 229.746094 335.960938 229.746094 335.972656 229.746094 C 336.308594 229.746094 336.570312 229.25 336.78125 228.851562 C 336.941406 228.578125 337.015625 228.207031 337.078125 227.773438 C 337.089844 227.660156 337.089844 227.125 337.078125 226.863281 C 337.015625 226.007812 337.601562 225.546875 338.257812 225.460938 C 338.433594 225.359375 338.632812 225.285156 338.878906 225.285156 C 340.519531 225.285156 341.140625 225.296875 342.234375 225.125 C 343.042969 225 343.839844 225.3125 344.0625 226.15625 C 344.089844 226.21875 344.0625 226.269531 344.089844 226.34375 C 344.136719 226.492188 344.1875 226.664062 344.164062 226.863281 C 344.050781 231.796875 343.664062 236.808594 344.945312 241.617188 C 345.21875 242.6875 344.375 243.382812 343.527344 243.433594 Z M 320.945312 221.132812 C 320.460938 221.132812 319.988281 221.132812 319.515625 221.132812 C 317.601562 221.132812 317.601562 218.164062 319.515625 218.164062 C 319.988281 218.164062 320.460938 218.164062 320.945312 218.164062 C 322.871094 218.164062 322.871094 221.132812 320.945312 221.132812 Z M 310.851562 221.507812 C 307.558594 221.507812 304.265625 221.507812 304.265625 221.507812 C 302.613281 221.507812 302.613281 218.214844 304.265625 218.214844 C 305.90625 218.214844 307.558594 218.214844 310.851562 218.214844 C 312.503906 218.214844 312.503906 221.507812 310.851562 221.507812 Z M 291.898438 221.132812 C 290.878906 221.132812 289.847656 221.132812 288.804688 221.132812 C 286.890625 221.132812 286.890625 218.164062 288.804688 218.164062 C 289.847656 218.164062 290.878906 218.164062 291.898438 218.164062 C 293.8125 218.164062 293.8125 221.132812 291.898438 221.132812 Z M 274.597656 221.507812 L 271.304688 221.507812 C 269.648438 221.507812 269.648438 218.214844 271.304688 218.214844 C 272.945312 218.214844 274.597656 218.214844 274.597656 218.214844 C 277.890625 218.214844 277.890625 221.507812 274.597656 221.507812 Z M 235.867188 223.535156 C 230.972656 224.019531 226.023438 223.609375 221.140625 224.316406 C 219.289062 224.589844 218.480469 221.71875 220.355469 221.457031 C 225.515625 220.699219 230.710938 221.058594 235.867188 220.574219 C 237.78125 220.390625 237.746094 223.359375 235.867188 223.535156 Z M 212.378906 243.183594 C 186.6875 243.246094 161.019531 244.5625 135.328125 244.613281 C 133.414062 244.636719 133.414062 241.667969 135.328125 241.65625 C 161.019531 241.605469 186.6875 240.289062 212.378906 240.214844 C 214.292969 240.214844 214.292969 243.183594 212.378906 243.183594 Z M 128.730469 244.414062 C 115.890625 244.75 103.050781 244.253906 90.199219 244.203125 C 88.285156 244.203125 88.285156 241.230469 90.199219 241.230469 C 103.050781 241.28125 115.890625 241.777344 128.730469 241.457031 C 130.644531 241.40625 130.644531 244.363281 128.730469 244.414062 Z M 152.628906 221.507812 C 156.570312 221.507812 160.871094 221.507812 164.164062 221.507812 C 165.816406 221.507812 165.816406 224.800781 164.164062 224.800781 C 160.871094 224.800781 156.570312 224.800781 152.628906 224.800781 C 150.714844 224.800781 150.714844 221.507812 152.628906 221.507812 Z M 174.878906 221.394531 C 178.410156 221.40625 181.964844 221.65625 185.480469 221.183594 C 187.34375 220.910156 188.152344 223.78125 186.277344 224.03125 C 182.484375 224.550781 178.695312 224.378906 174.878906 224.367188 C 172.964844 224.367188 172.964844 221.394531 174.878906 221.394531 Z M 196.304688 221.394531 C 201.152344 220.898438 206.011719 221.109375 210.859375 221.132812 C 212.773438 221.132812 212.773438 224.09375 210.859375 224.09375 C 206.011719 224.082031 201.152344 223.867188 196.304688 224.367188 C 194.417969 224.550781 194.429688 221.59375 196.304688 221.394531 Z M 372.464844 207.089844 C 371.941406 207.050781 371.507812 206.878906 371.160156 206.628906 C 361.773438 207.140625 352.503906 208.707031 343.042969 208.765625 C 332.480469 208.828125 321.914062 209.117188 311.363281 209.464844 C 290.121094 210.171875 268.878906 210.78125 247.625 210.234375 C 247.824219 213.253906 248.210938 216.261719 248.0625 219.320312 C 247.960938 221.210938 244.992188 221.234375 245.089844 219.320312 C 245.238281 216.238281 244.867188 213.191406 244.644531 210.121094 C 244.070312 209.984375 243.613281 209.6875 243.300781 209.277344 C 242.753906 208.878906 242.355469 208.296875 242.257812 207.5 C 241.882812 204.726562 241.386719 201.929688 241.074219 199.109375 C 229.40625 199.257812 217.769531 200.105469 206.199219 198.339844 C 206.175781 199.730469 206.199219 201.148438 206.25 202.554688 C 206.25 202.703125 206.199219 202.800781 206.175781 202.914062 C 206.300781 203.496094 206.101562 204.09375 205.515625 204.355469 C 207.28125 204.355469 209.058594 204.355469 210.824219 204.367188 C 211.582031 204.367188 212.027344 204.851562 212.191406 205.410156 C 212.527344 205.820312 212.652344 206.394531 212.316406 207.003906 C 211.71875 208.070312 210.949219 209.054688 210.710938 210.273438 C 210.601562 210.867188 210.039062 211.253906 209.445312 211.339844 C 209.28125 211.402344 209.097656 211.453125 208.859375 211.453125 C 198.34375 211.578125 187.867188 212.894531 177.351562 211.863281 C 176.878906 211.8125 176.519531 211.589844 176.28125 211.277344 C 176.246094 211.253906 176.234375 211.242188 176.195312 211.230469 C 174.914062 210.035156 173.710938 208.617188 172.988281 207.003906 C 172.703125 206.40625 172.753906 205.734375 173.1875 205.273438 C 173.300781 204.652344 173.746094 204.117188 174.566406 204.15625 C 181.8125 204.578125 189.058594 204.527344 196.304688 204.429688 C 195.847656 204.253906 195.484375 203.90625 195.484375 203.386719 C 195.484375 201.683594 195.484375 200.179688 195.484375 198.738281 C 192.664062 198.875 189.832031 198.550781 187.007812 198.949219 C 186.761719 198.972656 186.511719 198.949219 186.300781 198.863281 C 186.25 198.875 186.203125 198.898438 186.152344 198.910156 C 186.027344 199.507812 185.578125 200.03125 184.773438 200.015625 C 180.695312 199.980469 176.644531 200.078125 172.578125 200.03125 C 172.53125 200.054688 172.480469 200.078125 172.40625 200.078125 C 171.523438 200.078125 169.632812 200.078125 168.117188 200.078125 C 167.992188 200.128906 167.855469 200.167969 167.707031 200.203125 C 163.703125 200.914062 159.714844 200.777344 155.675781 200.714844 C 153.277344 202.988281 150.40625 204.976562 148.691406 207.835938 C 148.34375 211.203125 148.492188 214.609375 148.515625 218.015625 C 148.515625 218.859375 148.167969 219.46875 147.660156 219.867188 C 147.472656 220.128906 147.210938 220.351562 146.875 220.550781 C 144.601562 221.867188 142.214844 223.0625 140.175781 224.703125 C 140.003906 224.824219 139.851562 224.925781 139.691406 225.023438 C 139.28125 225.496094 138.648438 225.832031 137.800781 225.832031 C 127.910156 225.832031 117.816406 225.832031 107.933594 226.105469 C 99.894531 226.316406 91.714844 226.355469 83.984375 223.894531 C 83.175781 223.632812 82.679688 223.085938 82.457031 222.464844 C 82.480469 224.09375 82.519531 225.746094 82.519531 227.375 C 82.519531 228.207031 81.957031 228.667969 81.324219 228.765625 C 81.125 228.878906 80.902344 228.964844 80.617188 228.964844 C 78.914062 228.988281 77.199219 229.039062 75.484375 229.101562 C 75.496094 231.015625 75.558594 232.929688 75.582031 234.820312 C 76.203125 236.296875 75.496094 238.398438 73.417969 238.398438 C 66.644531 238.398438 59.882812 238.496094 53.109375 238.496094 C 51.707031 238.496094 50.9375 237.539062 50.773438 236.496094 C 50.6875 236.25 50.636719 236.011719 50.636719 235.714844 C 50.664062 234.121094 50.722656 232.570312 50.226562 231.015625 C 50.191406 230.941406 50.175781 230.855469 50.164062 230.753906 C 48.75 230.855469 47.34375 230.917969 45.925781 231.003906 C 46.039062 231.289062 46.113281 231.601562 46.125 231.910156 C 46.136719 233.265625 46.386719 234.582031 46.324219 235.925781 C 46.261719 237.28125 45.253906 238.398438 43.851562 238.398438 C 43.789062 238.398438 43.714844 238.386719 43.652344 238.386719 C 43.613281 238.386719 43.589844 238.398438 43.539062 238.398438 C 39.949219 238.683594 36.332031 238.523438 32.726562 238.496094 C 31.210938 238.496094 30.414062 237.378906 30.351562 236.210938 C 30.304688 236.050781 30.265625 235.898438 30.253906 235.714844 C 30.054688 234.273438 29.855469 232.816406 29.65625 231.351562 C 28.390625 231.363281 27.132812 231.363281 25.867188 231.363281 C 25.890625 231.625 25.902344 231.898438 25.839844 232.160156 C 25.542969 233.5625 25.40625 234.980469 25.109375 236.371094 C 24.945312 237.230469 24.238281 237.839844 23.417969 238.074219 C 23.082031 238.273438 22.683594 238.398438 22.222656 238.398438 C 17.476562 238.472656 12.753906 238.222656 8.003906 238.1875 C 7 238.1875 6.316406 237.714844 5.941406 237.03125 C 5.035156 236.757812 4.289062 235.960938 4.289062 234.695312 C 4.289062 234.695312 4.289062 233.078125 4.289062 231.8125 C 3.964844 231.824219 3.628906 231.835938 3.320312 231.859375 C 3.417969 235.652344 3.753906 239.40625 4.203125 243.171875 C 29.433594 244.453125 54.851562 241.816406 80.007812 243.605469 C 81.910156 243.753906 81.921875 246.726562 80.007812 246.578125 C 54.960938 244.785156 29.65625 247.398438 4.539062 246.152344 C 4.664062 247.0625 4.773438 247.980469 4.886719 248.886719 C 13.261719 251.796875 21.515625 255.054688 30.015625 257.578125 C 30.289062 257.652344 30.476562 257.789062 30.652344 257.9375 C 30.652344 257.9375 30.652344 257.9375 30.664062 257.9375 C 135.589844 257.9375 240.515625 258.296875 347.070312 258.347656 C 348.25 251.4375 351.59375 245.074219 355.535156 238.734375 C 359.574219 232.257812 363.378906 225.632812 367.132812 218.972656 C 369.246094 215.195312 370.761719 210.957031 372.824219 207.125 C 372.710938 207.101562 372.574219 207.089844 372.464844 207.089844 " fill-opacity="1" fill-rule="nonzero"/><path fill="#606060" d="M 28.898438 259.964844 L 28.738281 259.863281 C 23.019531 258.136719 17.300781 256.058594 11.773438 254.058594 C 10.367188 253.5625 8.976562 253.050781 7.582031 252.554688 L 6.226562 252.070312 L 7.136719 253.175781 C 7.546875 253.6875 7.957031 254.195312 8.367188 254.707031 C 10.21875 257.078125 12.144531 259.515625 14.816406 261.132812 C 15.089844 261.292969 15.3125 261.492188 15.476562 261.714844 L 15.585938 261.890625 L 15.796875 261.890625 C 19.6875 261.953125 23.890625 262.074219 29 262.289062 L 29.421875 262.300781 L 29.421875 260.273438 L 29.195312 260.160156 C 29.046875 260.101562 28.960938 260.011719 28.898438 259.964844 " fill-opacity="1" fill-rule="nonzero"/><g clip-path="url(#0a38894264)"><path fill="#606060" d="M 347.082031 261.34375 L 347.121094 260.921875 L 346.6875 260.921875 C 304.054688 260.894531 216.402344 260.820312 40.96875 260.523438 L 31.917969 260.496094 L 31.917969 262.425781 L 35.683594 262.585938 C 43.589844 262.957031 51.769531 263.355469 59.824219 263.246094 C 64.085938 263.195312 68.347656 263.121094 72.597656 263.046875 C 81.808594 262.871094 91.332031 262.710938 100.703125 262.796875 C 108.070312 262.871094 115.429688 262.933594 122.789062 262.996094 C 142.722656 263.15625 163.34375 263.332031 183.628906 263.792969 C 212.738281 264.449219 241.609375 264.261719 268.480469 263.964844 C 281.59375 263.828125 294.90625 264.511719 307.769531 265.183594 C 319.492188 265.78125 331.585938 266.402344 343.578125 266.402344 C 344.621094 266.402344 345.667969 266.402344 346.710938 266.390625 L 347.132812 266.390625 L 347.097656 265.964844 C 346.984375 264.324219 346.972656 262.773438 347.082031 261.34375 " fill-opacity="1" fill-rule="nonzero"/></g><path fill="#606060" d="M 4.300781 229.25 L 4.6875 229.25 L 4.6875 222.5 L 2.25 223.011719 L 2.25 229.335938 L 2.660156 229.324219 C 2.933594 229.3125 3.207031 229.300781 3.492188 229.289062 C 3.765625 229.277344 4.039062 229.261719 4.300781 229.25 " fill-opacity="1" fill-rule="nonzero"/><path fill="#606060" d="M 68.648438 224.21875 C 68.734375 224.976562 68.808594 225.734375 68.871094 226.480469 L 68.894531 226.875 L 69.292969 226.851562 C 71.269531 226.738281 73.257812 226.640625 75.234375 226.554688 L 75.707031 226.527344 L 75.609375 226.070312 C 75.246094 224.476562 75.160156 222.824219 75.074219 221.234375 L 75 219.980469 L 74.601562 220.003906 C 72.238281 220.152344 70.4375 220.226562 68.746094 220.277344 L 68.347656 220.277344 L 68.359375 220.6875 C 68.398438 221.867188 68.523438 223.0625 68.648438 224.21875 " fill-opacity="1" fill-rule="nonzero"/><path fill="#606060" d="M 77.84375 226.167969 L 77.933594 226.453125 L 78.230469 226.453125 C 78.640625 226.453125 79.074219 226.441406 79.484375 226.429688 L 79.535156 226.03125 L 79.546875 226.429688 L 79.933594 226.40625 L 79.933594 226.019531 C 79.921875 225.210938 79.90625 224.402344 79.90625 223.582031 C 79.882812 222.390625 79.871094 221.210938 79.871094 220.015625 L 79.871094 219.570312 L 78.527344 219.707031 C 78.191406 219.730469 77.871094 219.753906 77.535156 219.792969 L 77.160156 219.828125 L 77.210938 221.023438 C 77.285156 222.714844 77.359375 224.464844 77.84375 226.167969 " fill-opacity="1" fill-rule="nonzero"/><path fill="#606060" d="M 96.585938 214.632812 L 97.332031 214.980469 L 97.421875 215.019531 C 97.507812 215.058594 97.644531 215.117188 97.71875 215.167969 L 97.804688 215.242188 L 97.894531 215.242188 C 98.875 215.714844 99.382812 216.523438 99.261719 217.492188 C 99.261719 217.554688 99.273438 217.628906 99.285156 217.691406 C 99.285156 217.730469 99.296875 217.765625 99.296875 217.792969 C 99.273438 218.835938 99.171875 219.929688 98.949219 221.148438 L 98.875 221.59375 L 99.335938 221.605469 C 100.339844 221.644531 101.359375 221.65625 102.367188 221.65625 C 105.125 221.65625 107.886719 221.558594 110.582031 221.457031 C 112.757812 221.382812 115.082031 221.332031 117.890625 221.296875 L 118.25 221.296875 L 118.289062 220.9375 C 118.3125 220.636719 118.339844 220.3125 118.375 219.980469 C 118.648438 217.457031 119.023438 214 117.355469 212.570312 L 117.246094 212.472656 L 117.097656 212.472656 C 113.265625 212.484375 109.453125 212.519531 105.625 212.558594 C 102.40625 212.597656 99.199219 212.621094 95.980469 212.644531 L 95.628906 212.644531 L 95.59375 212.992188 C 95.582031 213.082031 95.570312 213.15625 95.570312 213.230469 L 95.53125 213.589844 C 95.507812 213.675781 95.492188 213.777344 95.480469 213.875 L 95.457031 214.175781 L 95.941406 214.359375 C 96.152344 214.433594 96.363281 214.523438 96.585938 214.632812 " fill-opacity="1" fill-rule="nonzero"/><path fill="#606060" d="M 111.839844 197.269531 C 107.601562 198.300781 108.023438 204.292969 108.285156 207.886719 L 108.320312 208.394531 L 109.363281 208.382812 C 112.074219 208.355469 114.785156 208.320312 117.492188 208.308594 L 117.867188 208.308594 L 117.890625 207.933594 C 118.101562 204.007812 118.039062 199.742188 115.839844 197.929688 C 114.832031 197.097656 113.492188 196.871094 111.839844 197.269531 " fill-opacity="1" fill-rule="nonzero"/><path fill="#606060" d="M 108.730469 191.054688 C 109.453125 191.726562 110.136719 192.375 110.757812 193.03125 L 110.894531 193.195312 L 111.105469 193.15625 C 111.539062 193.09375 112.011719 193.058594 112.507812 193.058594 C 114.597656 193.105469 116.300781 193.566406 117.703125 194.472656 L 118.066406 194.699219 L 118.265625 194.324219 C 118.464844 193.988281 118.710938 193.742188 119.035156 193.554688 C 119.605469 193.21875 120.214844 192.933594 120.738281 192.695312 L 121.484375 192.359375 L 120.761719 191.988281 C 116.152344 189.578125 111.167969 188.347656 106.019531 187.203125 L 104.925781 186.953125 L 105.625 187.835938 C 106.542969 188.992188 107.648438 190.035156 108.730469 191.054688 " fill-opacity="1" fill-rule="nonzero"/><path fill="#606060" d="M 41.601562 226.230469 C 41.578125 226.875 41.550781 227.535156 41.539062 228.183594 L 41.539062 228.59375 L 43.402344 228.53125 C 45.019531 228.457031 46.648438 228.355469 48.261719 228.257812 L 48.636719 228.230469 L 48.636719 227.859375 C 48.636719 225.410156 48.613281 223.011719 48.414062 220.574219 L 48.386719 220.214844 L 47.441406 220.191406 C 45.542969 220.152344 43.652344 220.101562 41.75 220.078125 L 41.242188 220.066406 L 41.351562 220.5625 C 41.761719 222.402344 41.675781 224.339844 41.601562 226.230469 " fill-opacity="1" fill-rule="nonzero"/><path fill="#606060" d="M 50.800781 227.660156 L 50.800781 228.082031 L 51.234375 228.058594 C 53.273438 227.921875 55.3125 227.773438 57.363281 227.621094 L 57.757812 227.597656 L 57.734375 227.199219 C 57.546875 224.925781 57.113281 222.714844 56.441406 220.625 L 56.355469 220.351562 L 56.070312 220.351562 C 54.429688 220.339844 52.773438 220.300781 51.121094 220.277344 L 50.574219 220.265625 L 50.613281 220.699219 C 50.785156 223.011719 50.800781 225.3125 50.800781 227.660156 " fill-opacity="1" fill-rule="nonzero"/><path fill="#606060" d="M 41.863281 230.742188 L 34.132812 230.929688 L 34.195312 231.375 C 34.304688 232.132812 34.40625 232.890625 34.503906 233.636719 L 34.554688 233.984375 L 35.761719 234 C 36.617188 234 37.488281 234.011719 38.359375 234.011719 C 39.339844 234.011719 40.320312 234 41.289062 233.972656 L 41.714844 233.910156 L 41.675781 233.488281 C 41.625 232.953125 41.578125 232.433594 41.578125 231.886719 C 41.5625 231.710938 41.601562 231.511719 41.675781 231.289062 L 41.863281 230.742188 " fill-opacity="1" fill-rule="nonzero"/><path fill="#606060" d="M 70.933594 229.351562 L 70.933594 228.925781 L 70.511719 228.953125 C 66.957031 229.164062 63.351562 229.425781 59.871094 229.6875 C 58.292969 229.796875 56.714844 229.921875 55.148438 230.035156 L 54.675781 230.058594 L 54.789062 230.519531 C 55.011719 231.425781 55.136719 232.445312 55.175781 233.550781 L 55.1875 233.9375 L 55.570312 233.9375 C 57.957031 233.9375 60.34375 233.925781 62.730469 233.910156 C 65.351562 233.898438 67.976562 233.886719 70.597656 233.875 L 71.007812 233.875 L 70.996094 233.476562 C 70.996094 232.792969 70.984375 232.109375 70.972656 231.4375 C 70.957031 230.742188 70.945312 230.046875 70.933594 229.351562 " fill-opacity="1" fill-rule="nonzero"/><path fill="#606060" d="M 59.882812 227.0625 L 59.921875 227.460938 L 60.308594 227.421875 C 62.320312 227.273438 64.308594 227.148438 66.324219 227.011719 L 66.71875 226.988281 L 66.695312 226.589844 C 66.632812 225.757812 66.546875 224.925781 66.460938 224.09375 C 66.347656 222.988281 66.222656 221.855469 66.1875 220.738281 L 66.171875 220.351562 L 65.789062 220.351562 C 63.800781 220.390625 61.6875 220.390625 59.164062 220.375 L 58.628906 220.363281 L 58.777344 220.875 C 59.351562 222.824219 59.722656 224.914062 59.882812 227.0625 " fill-opacity="1" fill-rule="nonzero"/><path fill="#606060" d="M 180.894531 153.84375 C 182.484375 153.457031 184.226562 153.582031 185.890625 153.558594 C 185.019531 156.503906 184.164062 161.175781 183.453125 165.03125 C 183.179688 166.484375 182.945312 167.765625 182.746094 168.734375 L 182.648438 169.207031 L 183.132812 169.21875 C 184.871094 169.230469 187.160156 169.253906 189.46875 169.34375 L 189.953125 169.367188 L 189.878906 168.882812 C 189.707031 167.863281 189.53125 166.484375 189.320312 164.878906 C 188.835938 161.015625 188.226562 156.328125 187.34375 153.46875 C 189.121094 153.347656 190.898438 153.148438 192.675781 152.910156 C 195.699219 152.488281 194.417969 147.890625 191.410156 148.300781 C 187.542969 148.835938 183.390625 148.335938 179.625 149.230469 C 176.644531 149.953125 177.910156 154.550781 180.894531 153.84375 " fill-opacity="1" fill-rule="nonzero"/><path fill="#606060" d="M 140.945312 118.65625 C 141.570312 118.558594 142.203125 118.519531 142.835938 118.46875 C 142.859375 119.800781 142.886719 121.128906 142.910156 122.460938 C 142.9375 123.652344 142.574219 125.679688 143.980469 126.25 C 145.359375 126.808594 147.472656 125.902344 148.925781 125.925781 C 151.125 125.964844 153.214844 126.226562 155.390625 125.804688 C 155.539062 125.777344 155.664062 125.714844 155.761719 125.640625 C 156.074219 125.964844 156.210938 126.324219 156.273438 126.550781 L 156.296875 126.671875 L 156.398438 126.746094 C 156.730469 127.035156 157.253906 127.667969 156.894531 128.710938 C 156.234375 130.800781 155.773438 132.75 155.5 134.691406 L 155.441406 135.113281 L 166.117188 135.933594 L 165.730469 134.640625 C 165.121094 132.589844 164.488281 130.453125 163.628906 128.449219 C 163.234375 127.492188 163.21875 126.226562 164.351562 125.566406 C 164.6875 125.367188 165.171875 125.28125 165.632812 125.320312 L 165.695312 125.332031 L 165.753906 125.320312 C 165.90625 125.292969 166.042969 125.269531 166.191406 125.292969 C 167.496094 125.40625 168.800781 125.355469 170.191406 125.132812 L 170.527344 125.082031 L 170.527344 124.746094 C 170.527344 123.800781 170.515625 123.007812 170.464844 122.25 L 170.441406 121.902344 L 170.105469 121.875 C 166.636719 121.578125 163.109375 121.601562 159.703125 121.628906 C 156.855469 121.652344 153.898438 121.6875 151.003906 121.515625 L 150.578125 121.492188 L 150.578125 123.628906 C 150.15625 123.601562 149.734375 123.578125 149.3125 123.566406 C 148.542969 123.527344 147.769531 123.542969 147 123.628906 C 146.503906 123.679688 145.855469 123.890625 145.296875 123.953125 C 145.097656 122.632812 145.273438 121.082031 145.246094 119.851562 C 145.234375 119.351562 145.222656 118.867188 145.210938 118.371094 C 145.546875 118.371094 145.867188 118.347656 146.191406 118.359375 C 147.722656 118.40625 147.722656 116.023438 146.191406 115.972656 C 145.84375 115.960938 145.507812 115.996094 145.171875 115.996094 C 145.160156 115.6875 145.160156 115.375 145.148438 115.066406 C 145.125 113.535156 142.738281 113.535156 142.761719 115.066406 C 142.773438 115.414062 142.773438 115.75 142.785156 116.082031 C 141.964844 116.144531 141.132812 116.234375 140.3125 116.355469 C 138.796875 116.582031 139.441406 118.878906 140.945312 118.65625 " fill-opacity="1" fill-rule="nonzero"/><path fill="#606060" d="M 174.617188 132.6875 C 175.113281 132.589844 175.613281 132.566406 176.109375 132.515625 C 175.996094 135.585938 176.28125 138.59375 176.929688 141.589844 C 176.109375 141.625 175.277344 141.675781 174.457031 141.75 L 174.457031 140.707031 L 174.082031 140.679688 C 170.777344 140.445312 167.457031 140.183594 164.140625 139.921875 L 162.488281 139.796875 L 162.945312 140.480469 C 163.753906 141.675781 164.328125 143.054688 164.636719 144.582031 L 164.710938 144.945312 L 165.070312 144.90625 C 165.742188 144.832031 166.414062 144.746094 167.085938 144.660156 C 168.191406 144.523438 169.273438 144.398438 170.441406 144.273438 C 170.539062 144.25 170.628906 144.273438 170.726562 144.261719 C 170.976562 144.460938 171.300781 144.582031 171.710938 144.507812 C 173.796875 144.160156 175.886719 143.960938 178.011719 143.898438 C 178.605469 143.875 178.96875 143.503906 179.105469 143.042969 C 179.378906 142.78125 179.550781 142.410156 179.441406 141.925781 C 178.683594 138.839844 178.394531 135.734375 178.507812 132.566406 C 178.667969 132.578125 178.832031 132.566406 179.003906 132.589844 C 180.507812 132.839844 181.15625 130.539062 179.640625 130.289062 C 177.726562 129.980469 175.886719 130.003906 173.984375 130.390625 C 172.480469 130.6875 173.113281 132.988281 174.617188 132.6875 " fill-opacity="1" fill-rule="nonzero"/><g clip-path="url(#f5ee593963)"><g clip-path="url(#4cbae5f4d0)"><path fill="#606060" d="M 323.582031 222.589844 L 340.234375 222.589844 L 340.234375 244.246094 L 323.582031 244.246094 Z M 323.582031 222.589844 " fill-opacity="1" fill-rule="nonzero"/></g></g><g clip-path="url(#1f4a0c0ed3)"><g clip-path="url(#056790dcd1)"><path fill="#606060" d="M 321.78125 218.839844 L 349.417969 218.839844 L 349.417969 252.308594 L 321.78125 252.308594 Z M 321.78125 218.839844 " fill-opacity="1" fill-rule="nonzero"/></g></g><g clip-path="url(#a5d7b0e9cc)"><g clip-path="url(#19cf25ab0e)"><path fill="#606060" d="M 78.527344 229.566406 L 233.832031 229.566406 L 233.832031 259.300781 L 78.527344 259.300781 Z M 78.527344 229.566406 " fill-opacity="1" fill-rule="nonzero"/></g></g><g clip-path="url(#99510b843e)"><g clip-path="url(#645245b7c8)"><path fill="#606060" d="M 256.382812 212.464844 L 330.914062 212.464844 L 330.914062 243.140625 L 256.382812 243.140625 Z M 256.382812 212.464844 " fill-opacity="1" fill-rule="nonzero"/></g></g><g clip-path="url(#8d0df3a9bf)"><g clip-path="url(#ecff989af2)"><path fill="#606060" d="M 145.125 215.503906 L 240.683594 215.503906 L 240.683594 248.425781 L 145.125 248.425781 Z M 145.125 215.503906 " fill-opacity="1" fill-rule="nonzero"/></g></g><g clip-path="url(#229a179756)"><g clip-path="url(#0a1fafc85d)"><path fill="#606060" d="M 1.390625 240.476562 L 96.410156 240.476562 L 96.410156 251.988281 L 1.390625 251.988281 Z M 1.390625 240.476562 " fill-opacity="1" fill-rule="nonzero"/></g></g><g clip-path="url(#75576bb3a4)"><g clip-path="url(#0515847d16)"><path fill="#606060" d="M 1.089844 240.550781 L 10.726562 240.550781 L 10.726562 252.070312 L 1.089844 252.070312 Z M 1.089844 240.550781 " fill-opacity="1" fill-rule="nonzero"/></g></g><g clip-path="url(#3bc40108b4)"><g clip-path="url(#411005847e)"><path fill="#606060" d="M 0.414062 239.277344 L 10.800781 239.277344 L 10.800781 251.53125 L 0.414062 251.53125 Z M 0.414062 239.277344 " fill-opacity="1" fill-rule="nonzero"/></g></g><path stroke-linecap="round" transform="matrix(0.75, 0, 0, 0.75, 66.698789, 246.751976)" fill="none" stroke-linejoin="miter" d="M 2.000573 2.002574 L 320.136011 2.002574 " stroke="#ff992f" stroke-width="4" stroke-opacity="1" stroke-miterlimit="4"/></svg>