<svg xmlns="http://www.w3.org/2000/svg" xmlns:xlink="http://www.w3.org/1999/xlink" width="500" zoomAndPan="magnify" viewBox="0 0 375 374.999991" height="500" preserveAspectRatio="xMidYMid meet" version="1.0"><defs><clipPath id="4fa261f128"><path d="M 146 135.703125 L 250 135.703125 L 250 207 L 146 207 Z M 146 135.703125 " clip-rule="nonzero"/></clipPath><clipPath id="a2fdf800fe"><path d="M 0 204 L 374 204 L 374 239.203125 L 0 239.203125 Z M 0 204 " clip-rule="nonzero"/></clipPath></defs><path fill="#606060" d="M 49.402344 203.625 L 20.808594 203.625 L 20.808594 207.152344 L 49.402344 207.058594 Z M 49.402344 203.625 " fill-opacity="1" fill-rule="nonzero"/><path fill="#606060" d="M 361.414062 199.109375 L 332.863281 200.671875 L 333.019531 203.523438 L 361.59375 202.402344 Z M 361.414062 199.109375 " fill-opacity="1" fill-rule="nonzero"/><path fill="#606060" d="M 312.101562 202.722656 L 328.710938 198.617188 L 328.371094 197.066406 L 311.507812 200.269531 L 311.1875 198.949219 L 308.667969 198.949219 L 307.996094 196.179688 L 302.203125 196.179688 L 301.535156 198.949219 L 299.066406 198.949219 L 297.625 204.910156 L 312.488281 204.328125 Z M 312.101562 202.722656 " fill-opacity="1" fill-rule="nonzero"/><path fill="#606060" d="M 81.894531 198.949219 L 79.429688 198.949219 L 78.757812 196.179688 L 72.964844 196.179688 L 72.296875 198.949219 L 69.773438 198.949219 L 69.453125 200.269531 L 52.589844 197.066406 L 52.253906 198.617188 L 68.859375 202.722656 L 67.828125 207 L 83.832031 206.949219 Z M 81.894531 198.949219 " fill-opacity="1" fill-rule="nonzero"/><path fill="#606060" d="M 138.167969 198.347656 L 116.699219 198.347656 L 116.699219 150.207031 L 113.878906 150.207031 L 113.878906 198.347656 L 108.890625 198.347656 L 108.890625 150.207031 L 106.070312 150.207031 L 106.070312 198.347656 L 93.492188 198.347656 L 93.492188 206.917969 L 138.167969 206.773438 Z M 138.167969 198.347656 " fill-opacity="1" fill-rule="nonzero"/><g clip-path="url(#4fa261f128)"><path fill="#606060" d="M 249.574219 206.414062 L 249.574219 201.003906 L 223.859375 201.003906 L 223.285156 198.617188 L 196.472656 198.617188 L 196.472656 196.882812 L 222.863281 196.882812 L 221.90625 192.925781 L 193.140625 192.925781 L 193.140625 191.191406 L 221.484375 191.191406 L 219.996094 185.03125 L 209.535156 185.03125 L 206.121094 170.9375 L 200.296875 170.9375 L 200.296875 165.875 L 196.554688 165.875 L 196.554688 154.976562 L 194.277344 154.976562 L 194.277344 165.875 L 191.1875 165.875 L 191.1875 154.976562 L 188.910156 154.976562 L 188.910156 165.875 L 185.167969 165.875 L 185.167969 170.9375 L 182.390625 170.9375 L 182.390625 146.300781 L 189.253906 146.300781 L 190.492188 138.144531 L 182.390625 138.144531 L 182.390625 135.703125 L 179.355469 135.703125 L 179.355469 138.144531 L 171.253906 138.144531 L 172.492188 146.300781 L 179.117188 146.300781 C 177.53125 150.121094 172.449219 160.988281 162.390625 170.9375 L 155.160156 170.9375 L 146.496094 206.746094 Z M 179.976562 177.367188 L 179.976562 181.921875 L 169.679688 181.921875 L 169.679688 177.367188 Z M 182.582031 181.921875 L 182.582031 177.367188 L 192.882812 177.367188 L 192.882812 181.921875 Z M 190.128906 192.925781 L 184.574219 192.925781 L 184.574219 191.191406 L 190.128906 191.191406 Z M 203.316406 181.921875 L 195.484375 181.921875 L 195.484375 177.367188 L 203.316406 177.367188 Z M 171.996094 170.9375 C 175.414062 167.253906 177.808594 163.503906 179.355469 160.648438 L 179.355469 170.9375 Z M 179.355469 147.601562 L 179.355469 159.074219 C 177.835938 162.085938 175.144531 166.59375 170.992188 170.9375 L 163.425781 170.9375 C 172.449219 161.828125 177.394531 152.0625 179.355469 147.601562 Z M 159.242188 177.367188 L 167.074219 177.367188 L 167.074219 181.921875 L 159.242188 181.921875 Z M 175.355469 191.191406 L 180.914062 191.191406 L 180.914062 192.925781 L 175.355469 192.925781 Z M 175.355469 191.191406 " fill-opacity="1" fill-rule="nonzero"/></g><path fill="#606060" d="M 285.402344 205.390625 L 283.367188 196.980469 L 313.265625 189.585938 L 312.65625 186.796875 L 282.296875 192.566406 L 281.722656 190.183594 L 277.183594 190.183594 L 275.976562 185.195312 L 265.550781 185.195312 L 264.34375 190.183594 L 259.90625 190.183594 L 259.175781 193.195312 L 272.507812 193.195312 L 272.507812 194.660156 L 258.820312 194.660156 L 255.980469 206.394531 L 260.089844 206.382812 Z M 285.402344 205.390625 " fill-opacity="1" fill-rule="nonzero"/><g clip-path="url(#a2fdf800fe)"><path fill="#606060" d="M 260.132812 208.574219 L 0.832031 209.410156 C 0.832031 209.410156 5.507812 222.28125 8.214844 226.757812 C 10.253906 230.132812 13.84375 232.253906 17.785156 232.40625 C 50.316406 233.644531 201.546875 239.292969 259.324219 239.292969 C 324.234375 239.292969 353.59375 234.671875 353.59375 234.671875 C 353.59375 234.671875 354.953125 223.464844 364.566406 219.667969 C 374.175781 215.871094 373.703125 204.125 373.703125 204.125 Z M 260.132812 208.574219 " fill-opacity="1" fill-rule="nonzero"/></g><path fill="#606060" d="M 135.128906 193.144531 L 130.085938 193.144531 L 130.085938 185.503906 L 128.636719 185.503906 L 128.636719 193.144531 L 127.167969 193.144531 L 127.167969 175.917969 L 125.71875 175.917969 L 125.71875 193.144531 L 118.867188 193.144531 L 118.867188 196.503906 L 135.128906 196.503906 Z M 135.128906 193.144531 " fill-opacity="1" fill-rule="nonzero"/><path fill="#606060" d="M 206.378906 160.554688 C 206.453125 160.996094 206.4375 161.4375 206.332031 161.875 C 206.230469 162.308594 206.046875 162.710938 205.785156 163.074219 C 205.523438 163.4375 205.199219 163.738281 204.820312 163.972656 C 204.4375 164.210938 204.023438 164.363281 203.582031 164.4375 C 203.140625 164.507812 202.699219 164.492188 202.261719 164.386719 C 201.828125 164.285156 201.425781 164.101562 201.0625 163.839844 C 200.699219 163.578125 200.398438 163.257812 200.164062 162.875 C 199.925781 162.492188 199.773438 162.082031 199.703125 161.636719 C 199.628906 161.195312 199.644531 160.753906 199.75 160.320312 C 199.851562 159.882812 200.035156 159.480469 200.296875 159.117188 C 200.558594 158.753906 200.878906 158.453125 201.261719 158.21875 C 201.644531 157.984375 202.054688 157.828125 202.5 157.757812 C 202.941406 157.683594 203.382812 157.699219 203.816406 157.804688 C 204.253906 157.90625 204.65625 158.089844 205.019531 158.351562 C 205.382812 158.613281 205.683594 158.9375 205.917969 159.316406 C 206.152344 159.699219 206.308594 160.113281 206.378906 160.554688 Z M 206.378906 160.554688 " fill-opacity="1" fill-rule="nonzero"/><path stroke-linecap="round" transform="matrix(0.75, 0, 0, 0.75, 66.698789, 220.304225)" fill="none" stroke-linejoin="miter" d="M 2.000573 2.000617 L 320.136011 2.000617 " stroke="#42cd54" stroke-width="4" stroke-opacity="1" stroke-miterlimit="4"/></svg>