<svg xmlns="http://www.w3.org/2000/svg" xmlns:xlink="http://www.w3.org/1999/xlink" width="500" zoomAndPan="magnify" viewBox="0 0 375 374.999991" height="500" preserveAspectRatio="xMidYMid meet" version="1.0"><defs><clipPath id="1b4be5f11a"><path d="M 0 153.210938 L 375 153.210938 L 375 221.460938 L 0 221.460938 Z M 0 153.210938 " clip-rule="nonzero"/></clipPath></defs><g clip-path="url(#1b4be5f11a)"><path fill="#606060" d="M 196.445312 176.289062 L 196.445312 181.316406 L 199.378906 181.316406 C 200.328125 181.316406 201.683594 181.546875 202.226562 182.984375 L 204.386719 188.730469 L 204.386719 190.359375 C 204.386719 191.226562 203.625 191.648438 202.863281 191.648438 L 197.273438 191.648438 L 197.273438 199.511719 L 200.140625 199.511719 C 200.085938 197.976562 199.796875 194.542969 201.707031 194.234375 L 207.332031 194.105469 C 207.976562 194.179688 208.570312 194.566406 209.085938 195.105469 L 220.355469 192.808594 C 221.464844 192.582031 221.761719 193.914062 220.847656 194.121094 L 210.121094 196.542969 C 210.683594 197.554688 211.027344 198.632812 211.0625 199.246094 L 215.351562 199.253906 L 215.445312 201.890625 L 217.246094 201.890625 C 217.195312 200.355469 217.171875 197.921875 219.082031 197.613281 L 223.839844 197.484375 C 224.535156 197.5625 225.140625 197.898438 225.644531 198.359375 L 235.851562 196.277344 C 236.960938 196.050781 237.257812 197.382812 236.34375 197.589844 L 226.71875 199.761719 C 227.078125 200.429688 227.285156 201.109375 227.324219 201.617188 L 313.167969 202.136719 C 296.351562 199.289062 279.609375 196.074219 262.941406 192.503906 C 240.65625 187.726562 218.492188 182.3125 196.445312 176.289062 Z M 81.367188 200.125 L 84.832031 202.777344 L 85.933594 202.804688 L 85.933594 197.398438 Z M 74.914062 195.183594 L 80.15625 199.199219 L 79.160156 194.863281 Z M 73.207031 192.792969 L 71.71875 192.332031 L 71.628906 192.664062 L 73.890625 194.398438 Z M 77.328125 194.0625 L 74.375 193.152344 L 74.84375 194.25 Z M 79.890625 193.875 L 86.867188 196.027344 L 86.867188 202.824219 L 98.085938 203.082031 C 98.105469 202.5 98.269531 201.726562 98.597656 200.953125 L 89.011719 198.789062 C 88.097656 198.582031 88.390625 197.25 89.503906 197.476562 L 99.453125 199.507812 C 100.082031 198.730469 100.941406 198.132812 102.054688 198.023438 L 107.335938 198.167969 C 109.453125 198.511719 109.429688 201.210938 109.292969 202.941406 L 111.84375 202.941406 L 111.84375 199.523438 L 113.046875 199.523438 C 113.097656 198.863281 113.335938 197.894531 113.820312 196.992188 L 104 194.773438 C 103.085938 194.566406 103.378906 193.234375 104.492188 193.460938 L 114.910156 195.585938 C 115.453125 195.113281 116.125 194.777344 116.949219 194.695312 L 122.230469 194.839844 C 124.34375 195.183594 124.320312 197.882812 124.207031 199.609375 L 127.664062 199.632812 L 127.664062 189.589844 L 128.902344 189.589844 L 128.902344 188.117188 L 128.070312 188.117188 L 130.574219 186.710938 L 130.574219 189.40625 L 132.152344 189.40625 L 132.152344 182.800781 L 131.464844 182.800781 L 131.464844 181.195312 L 132.757812 181.195312 L 132.757812 179.394531 L 131.914062 179.394531 L 131.914062 178.234375 L 132.796875 178.246094 L 132.796875 175.453125 C 111.414062 181.640625 89.75 186.714844 68.0625 191.078125 C 49.195312 194.875 30.3125 198.128906 11.574219 201.109375 L 83.246094 202.742188 L 80.503906 200.644531 L 80.492188 200.652344 L 80.488281 200.628906 L 70.8125 193.21875 L 70.566406 193.027344 L 71.066406 191.15625 L 79.875 193.871094 L 79.890625 193.871094 Z M 85.484375 196.578125 L 80.132812 194.929688 L 81.113281 199.1875 Z M 191.945312 227.039062 C 194.085938 227.105469 194.21875 228.375 191.945312 228.46875 C 186.839844 228.824219 180.679688 229.121094 177.070312 228.667969 C 171.605469 227.984375 173.722656 227.089844 177.871094 227.0625 C 181.480469 227.039062 187.050781 227.027344 191.945312 227.039062 Z M 199.882812 227.496094 C 204.335938 227.539062 208.832031 227.480469 213.886719 227.480469 C 220.480469 227.480469 226.890625 227.019531 233.148438 227.019531 C 235.664062 227.019531 260.210938 229.796875 259.480469 226.277344 C 259.242188 226.195312 232.6875 226.125 231.382812 226.332031 C 227.964844 226.871094 221.054688 225.328125 218.492188 225.9375 C 216.371094 226.441406 210.296875 226.582031 205.457031 226.511719 C 201.207031 226.449219 199.011719 224.949219 192.804688 225.421875 C 189.617188 225.664062 172.917969 226 168.5 225.289062 C 164.085938 224.574219 165.34375 224.347656 164.386719 223.03125 C 163.429688 221.714844 155.035156 223.476562 153.859375 223.667969 C 152.6875 223.863281 143.707031 224.355469 140.074219 223.863281 C 136.441406 223.371094 127.449219 223.230469 123.820312 223.230469 C 120.195312 223.230469 92.742188 222.8125 92.617188 223.601562 C 92.488281 224.394531 95.1875 224.433594 96.800781 223.984375 C 98.410156 223.535156 104.085938 223.984375 106.582031 224 C 109.074219 224.015625 113.316406 223.496094 115.671875 223.832031 C 118.03125 224.167969 123.042969 224.367188 125.683594 224.367188 C 128.324219 224.367188 139.964844 224.320312 141.046875 224.527344 C 142.132812 224.738281 142.839844 224.890625 142.636719 225.714844 C 142.433594 226.539062 136.21875 225.851562 135.023438 225.605469 C 133.828125 225.363281 132.683594 225.300781 129.949219 225.484375 C 127.210938 225.667969 122.757812 224.519531 120.785156 224.9375 C 118.8125 225.359375 113.933594 224.617188 113.179688 226.132812 C 112.429688 227.648438 118.644531 225.3125 121.304688 226.460938 C 123.964844 227.613281 120.363281 228.0625 119.125 228.269531 C 117.886719 228.480469 112.542969 228.425781 112.589844 229.199219 C 112.636719 229.976562 118 229.765625 120.214844 229.621094 C 122.429688 229.476562 127.464844 229.515625 130.582031 229.398438 C 133.703125 229.285156 133.078125 228.4375 135.640625 228.4375 C 138.203125 228.4375 141.75 229.070312 144.046875 229.109375 C 146.347656 229.152344 155.78125 229.910156 157.457031 228.722656 C 159.128906 227.53125 161.257812 228.539062 164.089844 229.078125 C 166.921875 229.617188 167.167969 228.90625 170.191406 228.90625 C 173.214844 228.90625 173.1875 229.410156 175.695312 229.828125 C 178.207031 230.246094 182.4375 230.402344 184.933594 230.785156 C 187.429688 231.167969 199.882812 231.457031 201.25 229.996094 C 202.621094 228.535156 195.589844 228.609375 195.90625 228.070312 C 196.152344 227.65625 198.472656 227.667969 199.882812 227.496094 Z M 110.058594 224.925781 C 106.621094 225.078125 94.515625 225.359375 91.324219 224.601562 C 88.761719 223.992188 81.851562 225.535156 78.433594 224.996094 C 77.132812 224.789062 50.574219 224.859375 50.332031 224.945312 C 49.605469 228.460938 74.152344 225.683594 76.667969 225.683594 C 82.921875 225.683594 89.335938 226.144531 95.925781 226.144531 C 101.03125 226.144531 105.5625 226.175781 110.058594 226.160156 C 111.65625 226.152344 111.507812 224.863281 110.058594 224.925781 Z M 284.800781 227.535156 C 276.808594 227.519531 267.027344 227.5625 266.882812 227.613281 C 266.402344 229.929688 276.871094 229.515625 284.800781 228.964844 C 287.074219 228.871094 286.9375 227.601562 284.800781 227.535156 Z M 88.046875 226.980469 C 83.152344 226.972656 77.582031 226.980469 73.96875 226.996094 C 69.824219 227.011719 67.707031 227.558594 73.167969 227.980469 C 76.777344 228.257812 82.9375 228.074219 88.046875 227.855469 C 90.320312 227.800781 90.183594 227.019531 88.046875 226.980469 Z M 141.898438 158.011719 L 141.15625 154.738281 L 141.15625 158.644531 L 141.316406 158.644531 L 141.316406 173.34375 C 141.585938 171.332031 141.789062 169.246094 141.910156 167.125 C 142.070312 164.277344 142.082031 161.355469 141.921875 158.425781 L 141.921875 158.421875 Z M 371.007812 222.328125 L 273.410156 222.285156 C 275.410156 222.40625 276.96875 222.574219 277.804688 222.804688 C 283.097656 224.257812 332.226562 221.355469 328.144531 224.058594 C 323.929688 224.644531 320.105469 225.9375 316.410156 224.683594 C 315.066406 224.226562 285.144531 225.773438 279.726562 225.105469 C 278.363281 224.9375 268.867188 224.339844 267.40625 224.339844 C 261.9375 224.339844 247.347656 226.027344 243.707031 225.183594 C 241.453125 224.664062 234.589844 225.714844 229.621094 224.945312 C 226.25 224.425781 214.035156 224.507812 210.839844 225.269531 C 208.277344 225.878906 201.363281 224.335938 197.945312 224.871094 C 196.644531 225.078125 170.085938 225.007812 169.847656 224.925781 C 169.117188 221.40625 193.664062 224.183594 196.183594 224.183594 C 202.4375 224.183594 208.847656 223.726562 215.441406 223.726562 C 226.507812 223.726562 234.957031 224 245.941406 222.609375 C 246.933594 222.484375 248.742188 222.371094 251.015625 222.277344 L 14.625 222.175781 C 14.625 213.234375 2.234375 211.316406 0 200.84375 L 4.585938 200.949219 C 25.53125 197.683594 46.6875 194.109375 67.816406 189.859375 C 89.585938 185.480469 111.332031 180.378906 132.796875 174.15625 L 132.796875 173.917969 C 132.777344 173.609375 132.886719 173.398438 133.324219 173.417969 L 137.929688 173.417969 C 138.308594 173.417969 138.757812 173.511719 138.757812 174.035156 L 138.757812 176.257812 L 140.46875 176.257812 L 140.46875 158.644531 L 140.628906 158.644531 L 140.628906 153.253906 L 141.15625 153.253906 L 141.15625 153.867188 C 143.269531 153.625 145.242188 154.625 147.527344 154.53125 C 147.546875 155.984375 148.164062 157.179688 147.953125 158.605469 C 145.242188 158.59375 144.003906 157.28125 142.253906 158.328125 C 142.421875 161.296875 142.410156 164.257812 142.246094 167.140625 C 142.078125 170.070312 141.757812 172.921875 141.316406 175.621094 L 141.316406 176.257812 L 141.59375 176.257812 L 141.59375 178.984375 L 144.480469 178.984375 C 145.324219 178.984375 145.765625 179.261719 144.957031 180.074219 L 140.667969 184.046875 L 142.082031 184.046875 C 142.613281 183.351562 143.898438 183.359375 144.503906 184.203125 C 145.039062 184.953125 144.542969 186.3125 143.214844 186.339844 L 144.425781 187.34375 L 140.6875 187.34375 L 140.6875 187.859375 L 142.585938 187.859375 C 144.382812 187.859375 144.355469 189.886719 142.585938 189.886719 L 142.585938 191.210938 L 149.566406 191.210938 C 151.402344 191.210938 151.421875 193.53125 149.566406 193.53125 L 143.457031 193.53125 L 145.410156 199.621094 L 155.324219 199.621094 L 155.324219 196.816406 L 158.417969 196.816406 L 158.417969 191.925781 L 156.910156 190.113281 L 156.910156 184.003906 L 156.175781 184.003906 L 156.175781 182.820312 L 159.234375 182.820312 L 159.234375 175.953125 L 158.519531 175.953125 L 158.519531 174.457031 L 166.621094 174.390625 L 166.621094 170.910156 L 166.128906 170.910156 C 165.402344 170.910156 164.808594 170.316406 164.808594 169.589844 C 164.808594 168.863281 165.402344 168.265625 166.128906 168.265625 L 167.941406 168.265625 L 167.941406 167.140625 C 167.941406 166.980469 168.074219 166.847656 168.234375 166.847656 L 169.214844 166.847656 L 169.214844 166.261719 C 169.214844 166.039062 169.273438 165.832031 169.382812 165.65625 C 168.652344 164.992188 168.191406 164.035156 168.191406 162.972656 C 168.191406 160.972656 169.816406 159.347656 171.816406 159.347656 C 173.816406 159.347656 175.4375 160.972656 175.4375 162.972656 C 175.4375 163.777344 175.175781 164.523438 174.730469 165.125 C 175.542969 165.296875 176.164062 166 176.207031 166.847656 L 179.292969 166.847656 C 179.617188 166.847656 179.878906 167.113281 179.878906 167.4375 L 179.878906 168.265625 L 181.886719 168.265625 C 182.613281 168.265625 183.207031 168.863281 183.207031 169.589844 C 183.207031 170.316406 182.613281 170.910156 181.886719 170.910156 L 180.515625 170.910156 L 180.515625 174.277344 L 196.445312 174.152344 C 197.09375 174.152344 197.453125 174.714844 197.429688 175.265625 C 219.207031 181.207031 241.128906 186.554688 263.199219 191.28125 C 282.386719 195.394531 301.679688 199.035156 321.085938 202.1875 L 331.382812 202.25 C 331.441406 200.601562 331.832031 198.816406 333.585938 198.53125 L 339.28125 198.378906 C 340.113281 198.472656 340.839844 198.875 341.441406 199.425781 L 353.65625 196.933594 C 354.988281 196.660156 355.339844 198.257812 354.246094 198.503906 L 342.726562 201.105469 C 342.949219 201.515625 343.125 201.929688 343.246094 202.320312 L 355.96875 202.398438 C 361.757812 202.324219 367.347656 202.6875 372.601562 205.289062 C 375.019531 206.488281 374.65625 207.386719 372.789062 209.21875 C 368.433594 213.496094 369.511719 218.191406 371.007812 222.328125 " fill-opacity="1" fill-rule="evenodd"/></g><path stroke-linecap="round" transform="matrix(0.75, 0, 0, 0.75, 66.698789, 211.047512)" fill="none" stroke-linejoin="miter" d="M 2.000573 1.999151 L 320.136011 1.999151 " stroke="#42cd54" stroke-width="4" stroke-opacity="1" stroke-miterlimit="4"/></svg>