<svg xmlns="http://www.w3.org/2000/svg" xmlns:xlink="http://www.w3.org/1999/xlink" width="500" zoomAndPan="magnify" viewBox="0 0 375 374.999991" height="500" preserveAspectRatio="xMidYMid meet" version="1.0"><defs><clipPath id="ecd86fb54b"><path d="M 0 153.96875 L 374 153.96875 L 374 220.71875 L 0 220.71875 Z M 0 153.96875 " clip-rule="nonzero"/></clipPath></defs><g clip-path="url(#ecd86fb54b)"><path fill="#606060" d="M 373.34375 197.816406 C 367.246094 200.074219 359.792969 201.28125 351.585938 201.957031 L 349.175781 199.023438 L 360.019531 191.570312 L 347.820312 198.496094 C 345.035156 192.320312 335.023438 196.238281 335.851562 203.085938 L 323.730469 203.839844 L 323.730469 198.644531 L 330.429688 198.195312 C 332.085938 196.6875 332.613281 194.882812 330.507812 192.472656 L 328.847656 191.71875 L 344.660156 182.609375 L 327.191406 190.742188 L 325.914062 187.953125 L 342.476562 178.46875 L 324.707031 186.902344 C 322.601562 186.375 319.515625 186.449219 317.179688 186.75 C 315.449219 186.902344 314.167969 188.332031 314.167969 190.0625 L 314.09375 191.71875 L 312.0625 191.792969 C 310.554688 188.03125 305.359375 189.460938 307.242188 194.804688 L 291.882812 195.183594 C 289.25 195.257812 287.214844 197.441406 287.214844 200 L 287.292969 203.992188 L 282.246094 203.691406 L 282.246094 202.710938 C 282.246094 200.753906 280.367188 199.324219 278.484375 199.851562 L 272.160156 201.582031 C 273.738281 199.550781 274.71875 197.367188 274.34375 194.882812 L 279.914062 194.957031 L 279.6875 193.074219 L 274.191406 193.300781 C 274.417969 189.535156 268.320312 188.332031 267.71875 193 L 265.15625 193.675781 L 265.007812 182.308594 L 258.984375 182.460938 L 258.984375 175.910156 L 262.972656 175.910156 L 262.824219 169.8125 L 259.585938 169.8125 L 259.359375 167.550781 L 262.597656 167.550781 L 262.671875 161.304688 L 258.832031 161.605469 C 259.585938 155.054688 255.597656 152.496094 247.691406 153.472656 L 242.722656 149.484375 L 242.722656 147.074219 L 245.808594 147.074219 L 245.660156 143.613281 L 243.023438 143.613281 L 243.699219 138.265625 L 245.582031 138.265625 C 246.636719 141.050781 248.59375 142.785156 251.304688 143.761719 L 248.671875 136.15625 L 254.769531 133.523438 L 254.316406 132.621094 L 248.820312 134.425781 L 245.582031 125.242188 C 244.453125 127.273438 244.226562 130.585938 244.679688 134.953125 L 242.648438 135.179688 L 242.496094 131.039062 L 240.691406 130.886719 L 240.539062 123.8125 L 239.410156 123.8125 L 239.035156 122.003906 L 241.214844 122.003906 L 241.441406 115.832031 L 238.28125 115.832031 L 238.28125 87.070312 L 236.773438 87.070312 L 236.773438 115.605469 L 233.988281 115.605469 L 234.140625 122.003906 L 236.699219 121.628906 L 236.472656 124.035156 L 236.699219 131.113281 C 230.074219 133.824219 229.171875 137.0625 231.882812 140.601562 C 225.558594 144.742188 226.386719 147.675781 232.40625 149.785156 C 234.0625 153.023438 232.632812 155.28125 228.945312 156.863281 L 222.167969 157.011719 L 222.695312 163.1875 L 227.664062 163.5625 L 227.589844 170.714844 L 220.738281 170.035156 L 220.964844 172.144531 L 218.554688 172.144531 L 218.554688 174.175781 L 220.589844 174.175781 L 220.589844 176.058594 L 217.800781 176.058594 L 217.800781 177.1875 L 220.589844 177.1875 L 220.589844 178.996094 L 217.125 178.996094 L 217.125 181.027344 L 220.738281 181.027344 L 220.738281 186.375 L 223.375 189.007812 L 223.375 191.34375 L 214.113281 191.34375 C 214.265625 187.503906 212.382812 186.222656 209.21875 186.449219 L 206.433594 186.449219 L 201.691406 183.0625 L 201.84375 180.125 L 207.414062 184.867188 C 209.070312 182.234375 209.824219 180.800781 214.039062 174.402344 C 208.542969 171.390625 197.550781 164.390625 193.257812 161.679688 C 192.808594 161.378906 192.355469 161.90625 192.582031 162.359375 L 195.214844 166.574219 L 190.550781 164.464844 C 190.097656 164.316406 189.722656 164.765625 190.023438 165.144531 L 193.484375 169.285156 L 187.914062 167.476562 C 187.460938 167.328125 187.238281 167.851562 187.539062 168.15625 L 200.1875 179.523438 L 199.960938 183.136719 C 197.175781 183.210938 194.464844 184.867188 191.828125 187.652344 C 190.699219 188.859375 190.171875 190.4375 190.171875 192.09375 C 190.171875 193.75 191.300781 195.257812 192.957031 195.632812 C 195.214844 196.085938 197.324219 195.710938 199.433594 194.503906 L 199.507812 200.902344 L 184 200.902344 C 184.828125 197.816406 183.472656 196.011719 180.6875 194.957031 C 179.933594 193.226562 181.515625 193.074219 183.925781 193.527344 L 184.449219 182.910156 L 181.742188 182.683594 L 180.6875 179.371094 C 183.097656 177.640625 184.449219 175.230469 185.054688 172.296875 L 178.277344 175.609375 L 173.910156 170.414062 L 176.46875 176.8125 L 170.449219 180.125 C 172.707031 180.800781 175.265625 180.878906 178.277344 180.5 L 179.558594 183.0625 L 165.78125 183.4375 C 165.929688 178.84375 164.273438 176.660156 161.1875 176.285156 L 159.90625 179.371094 L 158.101562 178.996094 L 157.800781 177.113281 C 157.574219 175.609375 156.292969 174.554688 154.789062 174.628906 L 148.085938 174.929688 L 129.71875 165.671875 L 147.109375 176.210938 L 145.078125 178.921875 L 127.007812 169.585938 L 144.097656 180.125 L 142.816406 181.40625 L 141.160156 181.40625 L 141.460938 186.902344 L 148.613281 186.675781 L 148.390625 192.472656 L 137.019531 192.320312 C 137.546875 187.125 136.34375 184.867188 134.160156 184.566406 L 127.460938 184.417969 L 124.070312 186.824219 L 112.703125 181.628906 L 123.09375 187.953125 L 121.058594 191.71875 L 114.660156 191.71875 C 113.984375 191.71875 113.378906 192.019531 113.003906 192.621094 L 106.90625 202.257812 L 96.441406 202.636719 C 96.894531 197.140625 96.441406 192.472656 89.664062 193.75 L 89.515625 191.570312 L 82.589844 191.570312 C 80.554688 192.019531 79.578125 193.226562 79.125 194.804688 L 77.996094 199.925781 C 74.609375 200.453125 71.671875 200.226562 68.960938 199.171875 L 64.371094 190.816406 L 0 191.570312 C 10.992188 201.957031 22.886719 210.238281 36.4375 214.378906 C 38.171875 216.5625 38.171875 218.746094 36.4375 220.929688 L 366.492188 220.929688 C 370.105469 217.015625 375 201.507812 373.34375 197.816406 Z M 373.34375 197.816406 " fill-opacity="1" fill-rule="nonzero"/></g><path stroke-linecap="round" transform="matrix(0.75, 0, 0, 0.75, 66.698789, 211.047512)" fill="none" stroke-linejoin="miter" d="M 2.000573 1.999151 L 320.136011 1.999151 " stroke="#ff992f" stroke-width="4" stroke-opacity="1" stroke-miterlimit="4"/></svg>