<svg xmlns="http://www.w3.org/2000/svg" xmlns:xlink="http://www.w3.org/1999/xlink" width="500" zoomAndPan="magnify" viewBox="0 0 375 374.999991" height="500" preserveAspectRatio="xMidYMid meet" version="1.0"><defs><clipPath id="17f416be2d"><path d="M 5.625 10 L 369.375 10 L 369.375 295 L 5.625 295 Z M 5.625 10 " clip-rule="nonzero"/></clipPath></defs><path fill="#027bff" d="M 65.484375 48.011719 C 41.902344 48.011719 22.871094 67.046875 22.871094 90.625 C 22.871094 114.203125 41.902344 133.238281 65.484375 133.238281 C 89.0625 133.238281 108.097656 114.203125 108.097656 90.625 C 108.097656 67.046875 89.0625 48.011719 65.484375 48.011719 Z M 65.484375 121.875 C 48.152344 121.875 34.234375 107.953125 34.234375 90.625 C 34.234375 73.296875 48.152344 59.375 65.484375 59.375 C 82.8125 59.375 96.734375 73.296875 96.734375 90.625 C 96.734375 107.953125 82.8125 121.875 65.484375 121.875 Z M 65.484375 121.875 " fill-opacity="1" fill-rule="nonzero"/><path fill="#027bff" d="M 241.621094 133.238281 C 265.199219 133.238281 284.234375 114.203125 284.234375 90.625 C 284.234375 67.046875 265.199219 48.011719 241.621094 48.011719 C 218.039062 48.011719 199.003906 67.046875 199.003906 90.625 C 199.003906 114.203125 218.039062 133.238281 241.621094 133.238281 Z M 241.621094 59.375 C 258.949219 59.375 272.871094 73.296875 272.871094 90.625 C 272.871094 107.953125 258.949219 121.875 241.621094 121.875 C 224.289062 121.875 210.371094 107.953125 210.371094 90.625 C 210.371094 73.296875 224.289062 59.375 241.621094 59.375 Z M 241.621094 59.375 " fill-opacity="1" fill-rule="nonzero"/><path fill="#027bff" d="M 65.484375 155.964844 C 41.902344 155.964844 22.871094 175 22.871094 198.578125 C 22.871094 222.160156 41.902344 241.191406 65.484375 241.191406 C 89.0625 241.191406 108.097656 222.160156 108.097656 198.578125 C 108.097656 175 89.0625 155.964844 65.484375 155.964844 Z M 65.484375 229.828125 C 48.152344 229.828125 34.234375 215.910156 34.234375 198.578125 C 34.234375 181.25 48.152344 167.328125 65.484375 167.328125 C 82.8125 167.328125 96.734375 181.25 96.734375 198.578125 C 96.734375 215.910156 82.8125 229.828125 65.484375 229.828125 Z M 65.484375 229.828125 " fill-opacity="1" fill-rule="nonzero"/><path fill="#027bff" d="M 241.621094 241.191406 C 265.199219 241.191406 284.234375 222.160156 284.234375 198.578125 C 284.234375 175 265.199219 155.964844 241.621094 155.964844 C 218.039062 155.964844 199.003906 175 199.003906 198.578125 C 199.003906 222.160156 218.039062 241.191406 241.621094 241.191406 Z M 241.621094 167.328125 C 258.949219 167.328125 272.871094 181.25 272.871094 198.578125 C 272.871094 215.910156 258.949219 229.828125 241.621094 229.828125 C 224.289062 229.828125 210.371094 215.910156 210.371094 198.578125 C 210.371094 181.25 224.289062 167.328125 241.621094 167.328125 Z M 241.621094 167.328125 " fill-opacity="1" fill-rule="nonzero"/><path fill="#027bff" d="M 72.871094 97.726562 L 72.871094 70.171875 L 70.597656 70.171875 L 54.6875 76.988281 C 54.6875 77.558594 54.972656 78.125 55.253906 78.976562 C 55.539062 79.546875 55.824219 80.398438 56.109375 80.964844 C 56.390625 81.535156 56.675781 82.386719 56.960938 82.953125 C 57.246094 83.523438 57.527344 84.089844 57.8125 84.660156 L 63.777344 82.386719 L 63.777344 98.011719 L 56.675781 98.011719 C 56.390625 99.433594 56.109375 100.851562 56.109375 101.988281 C 56.109375 103.410156 56.390625 104.828125 56.675781 106.25 L 79.6875 106.25 C 79.972656 104.828125 80.253906 103.410156 80.253906 101.988281 C 80.253906 100.851562 79.972656 99.433594 79.6875 98.011719 L 72.871094 98.011719 Z M 72.871094 97.726562 " fill-opacity="1" fill-rule="nonzero"/><path fill="#027bff" d="M 68.609375 208.238281 L 71.734375 203.691406 C 72.300781 202.839844 72.871094 201.988281 73.722656 200.851562 C 74.289062 200 74.859375 198.863281 75.425781 197.726562 C 75.996094 196.589844 76.277344 195.453125 76.5625 194.316406 C 76.847656 193.183594 77.128906 191.761719 77.128906 190.625 C 77.128906 188.636719 76.847656 187.214844 75.996094 185.796875 C 75.425781 184.375 74.289062 183.238281 73.152344 182.386719 C 72.015625 181.535156 70.597656 180.683594 68.890625 180.398438 C 67.1875 180.113281 65.484375 179.828125 63.777344 179.828125 C 61.503906 179.828125 59.515625 180.113281 57.527344 180.683594 C 55.824219 181.25 54.121094 181.816406 52.984375 182.386719 C 52.984375 183.808594 53.265625 185.226562 53.835938 186.363281 C 54.402344 187.785156 54.6875 188.921875 55.253906 190.339844 C 56.109375 189.773438 57.246094 189.203125 58.664062 188.636719 C 59.800781 188.066406 61.222656 187.785156 62.640625 187.785156 C 64.0625 187.785156 65.199219 188.066406 66.050781 188.921875 C 66.902344 189.773438 67.1875 190.625 67.1875 191.761719 C 67.1875 192.898438 66.902344 194.316406 66.050781 196.023438 C 65.199219 197.726562 64.0625 199.433594 62.359375 201.703125 L 52.414062 214.773438 L 52.984375 216.476562 L 77.984375 216.476562 C 78.265625 215.058594 78.550781 213.636719 78.550781 212.214844 C 78.550781 211.078125 78.265625 209.660156 77.984375 208.238281 Z M 68.609375 208.238281 " fill-opacity="1" fill-rule="nonzero"/><path fill="#027bff" d="M 234.515625 107.671875 C 235.371094 107.953125 236.222656 107.953125 236.789062 107.953125 C 237.359375 107.953125 238.496094 107.953125 239.347656 107.953125 C 241.335938 107.953125 243.324219 107.671875 245.027344 107.101562 C 246.734375 106.535156 248.4375 105.683594 249.574219 104.546875 C 250.996094 103.410156 251.847656 101.988281 252.699219 100.566406 C 253.550781 99.148438 253.835938 97.160156 253.835938 95.171875 C 253.835938 92.613281 253.265625 90.339844 251.847656 88.636719 C 250.425781 86.933594 248.722656 85.796875 246.164062 85.511719 L 253.265625 73.296875 L 252.984375 71.875 L 231.675781 71.875 C 231.390625 73.296875 231.109375 74.433594 231.109375 75.566406 C 231.109375 76.703125 231.390625 78.125 231.675781 79.261719 L 241.621094 79.261719 L 235.371094 90.058594 L 236.503906 91.761719 C 237.359375 91.476562 237.925781 91.476562 238.496094 91.476562 C 239.0625 91.476562 239.628906 91.476562 240.199219 91.476562 C 240.765625 91.476562 241.621094 91.476562 242.1875 91.761719 C 242.753906 92.046875 243.324219 92.328125 243.890625 92.613281 C 244.460938 92.898438 244.746094 93.464844 245.027344 94.035156 C 245.3125 94.601562 245.597656 95.171875 245.597656 96.023438 C 245.597656 97.726562 245.027344 98.863281 243.890625 99.714844 C 242.753906 100.566406 241.050781 100.851562 239.0625 100.851562 C 237.640625 100.851562 236.503906 100.851562 235.371094 100.285156 C 234.234375 100 233.097656 99.714844 231.675781 99.148438 C 231.109375 100.285156 230.539062 101.421875 230.253906 102.558594 C 229.972656 103.691406 229.6875 105.113281 229.402344 106.25 C 230.253906 106.535156 231.109375 106.816406 231.960938 107.101562 C 232.8125 107.386719 233.949219 107.386719 234.515625 107.671875 Z M 234.515625 107.671875 " fill-opacity="1" fill-rule="nonzero"/><path fill="#027bff" d="M 244.460938 210.796875 L 244.460938 217.328125 C 245.3125 217.613281 246.164062 217.613281 246.734375 217.613281 C 247.585938 217.613281 248.152344 217.613281 249.003906 217.613281 C 249.574219 217.613281 250.425781 217.613281 251.277344 217.613281 C 252.128906 217.613281 252.699219 217.328125 253.550781 217.328125 L 253.550781 210.796875 L 256.390625 210.796875 C 256.675781 209.375 256.960938 207.953125 256.960938 206.816406 C 256.960938 205.683594 256.675781 204.261719 256.390625 202.839844 L 253.550781 202.839844 L 253.550781 196.875 C 252.699219 196.589844 252.128906 196.589844 251.277344 196.589844 C 250.425781 196.589844 249.859375 196.589844 249.003906 196.589844 C 248.152344 196.589844 247.585938 196.589844 246.734375 196.589844 C 245.878906 196.589844 245.3125 196.875 244.460938 196.875 L 244.460938 202.839844 L 239.0625 202.839844 L 249.003906 180.964844 C 247.871094 180.113281 246.449219 179.261719 245.027344 178.691406 C 243.609375 178.125 242.1875 177.839844 240.765625 177.839844 L 225.996094 209.089844 L 226.847656 210.796875 Z M 244.460938 210.796875 " fill-opacity="1" fill-rule="nonzero"/><path fill="#027bff" d="M 173.4375 73.578125 C 173.4375 70.453125 170.878906 67.898438 167.753906 67.898438 L 122.300781 67.898438 C 119.175781 67.898438 116.621094 70.453125 116.621094 73.578125 C 116.621094 76.703125 119.175781 79.261719 122.300781 79.261719 L 167.753906 79.261719 C 170.878906 79.261719 173.4375 76.703125 173.4375 73.578125 Z M 173.4375 73.578125 " fill-opacity="1" fill-rule="nonzero"/><path fill="#027bff" d="M 133.664062 96.308594 C 130.539062 96.308594 127.984375 98.863281 127.984375 101.988281 C 127.984375 105.113281 130.539062 107.671875 133.664062 107.671875 L 156.390625 107.671875 C 159.515625 107.671875 162.074219 105.113281 162.074219 101.988281 C 162.074219 98.863281 159.515625 96.308594 156.390625 96.308594 Z M 133.664062 96.308594 " fill-opacity="1" fill-rule="nonzero"/><path fill="#027bff" d="M 122.300781 190.058594 L 167.753906 190.058594 C 170.878906 190.058594 173.4375 187.5 173.4375 184.375 C 173.4375 181.25 170.878906 178.691406 167.753906 178.691406 L 122.300781 178.691406 C 119.175781 178.691406 116.621094 181.25 116.621094 184.375 C 116.621094 187.5 119.175781 190.058594 122.300781 190.058594 Z M 122.300781 190.058594 " fill-opacity="1" fill-rule="nonzero"/><path fill="#027bff" d="M 349.574219 79.261719 C 349.574219 76.136719 347.015625 73.578125 343.890625 73.578125 L 298.4375 73.578125 C 295.3125 73.578125 292.753906 76.136719 292.753906 79.261719 C 292.753906 82.386719 295.3125 84.941406 298.4375 84.941406 L 343.890625 84.941406 C 347.015625 84.941406 349.574219 82.386719 349.574219 79.261719 Z M 349.574219 79.261719 " fill-opacity="1" fill-rule="nonzero"/><path fill="#027bff" d="M 309.800781 101.988281 C 306.675781 101.988281 304.121094 104.546875 304.121094 107.671875 C 304.121094 110.796875 306.675781 113.351562 309.800781 113.351562 L 332.527344 113.351562 C 335.652344 113.351562 338.210938 110.796875 338.210938 107.671875 C 338.210938 104.546875 335.652344 101.988281 332.527344 101.988281 Z M 309.800781 101.988281 " fill-opacity="1" fill-rule="nonzero"/><path fill="#027bff" d="M 298.4375 195.738281 L 343.890625 195.738281 C 347.015625 195.738281 349.574219 193.183594 349.574219 190.058594 C 349.574219 186.933594 347.015625 184.375 343.890625 184.375 L 298.4375 184.375 C 295.3125 184.375 292.753906 186.933594 292.753906 190.058594 C 292.753906 193.183594 295.3125 195.738281 298.4375 195.738281 Z M 298.4375 195.738281 " fill-opacity="1" fill-rule="nonzero"/><path fill="#027bff" d="M 309.800781 212.785156 C 306.675781 212.785156 304.121094 215.339844 304.121094 218.464844 C 304.121094 221.589844 306.675781 224.148438 309.800781 224.148438 L 332.527344 224.148438 C 335.652344 224.148438 338.210938 221.589844 338.210938 218.464844 C 338.210938 215.339844 335.652344 212.785156 332.527344 212.785156 Z M 309.800781 212.785156 " fill-opacity="1" fill-rule="nonzero"/><path fill="#027bff" d="M 219.746094 261.648438 C 216.902344 261.648438 214.347656 262.214844 212.074219 263.636719 C 211.222656 261.933594 210.371094 260.226562 208.949219 259.089844 C 205.824219 255.964844 201.277344 254.261719 195.3125 254.261719 C 192.753906 254.261719 190.199219 254.828125 187.925781 256.25 C 185.371094 252.273438 180.539062 249.433594 171.164062 249.433594 L 169.460938 249.433594 C 167.1875 249.433594 164.914062 249.714844 162.925781 250.566406 L 162.925781 222.441406 C 162.925781 222.160156 162.925781 222.160156 162.925781 221.875 C 162.074219 212.785156 154.121094 205.398438 143.890625 204.546875 C 143.609375 204.546875 143.609375 204.546875 143.324219 204.546875 C 131.109375 204.546875 121.164062 213.066406 121.164062 223.578125 L 121.164062 299.433594 C 119.460938 297.726562 117.472656 296.308594 114.914062 295.453125 C 109.800781 293.464844 104.121094 294.035156 99.574219 297.441406 C 95.3125 300.851562 93.039062 305.964844 93.609375 311.078125 C 97.871094 348.011719 126.277344 375 160.9375 375 L 201.847656 375 C 220.597656 375 235.9375 359.375 235.9375 340.058594 L 235.9375 280.113281 C 235.9375 269.601562 228.835938 261.648438 219.746094 261.648438 Z M 224.574219 339.773438 C 224.574219 352.839844 214.347656 363.351562 201.847656 363.351562 L 161.222656 363.351562 C 131.960938 363.351562 108.949219 341.191406 105.253906 309.375 C 104.972656 307.386719 106.390625 306.25 106.675781 305.964844 C 106.960938 305.683594 108.097656 305.113281 109.234375 305.113281 C 109.800781 305.113281 110.085938 305.113281 110.652344 305.398438 C 113.777344 306.816406 116.050781 310.226562 118.609375 314.203125 C 122.585938 320.738281 128.265625 329.546875 141.050781 329.546875 C 144.175781 329.546875 146.734375 326.988281 146.734375 323.863281 C 146.734375 320.738281 144.175781 318.183594 141.050781 318.183594 C 137.359375 318.183594 134.800781 316.761719 132.527344 314.203125 L 132.527344 223.296875 C 132.527344 219.601562 136.789062 215.625 143.039062 215.625 C 147.300781 216.191406 150.996094 219.035156 151.5625 222.441406 L 151.5625 264.773438 C 151.5625 265.625 151.5625 266.191406 151.5625 267.046875 L 151.5625 292.328125 C 151.5625 295.171875 153.835938 297.726562 156.675781 298.011719 C 159.515625 298.296875 162.074219 296.589844 162.925781 293.75 L 162.925781 293.183594 C 162.925781 292.613281 163.210938 292.328125 163.210938 291.761719 L 163.210938 265.625 C 163.777344 262.5 166.335938 260.226562 169.460938 260.226562 L 171.164062 260.226562 C 179.121094 260.226562 179.121094 261.363281 179.402344 266.476562 L 179.402344 291.476562 C 179.402344 294.601562 181.960938 297.160156 185.085938 297.160156 C 188.210938 297.160156 190.765625 294.601562 190.765625 291.476562 L 190.765625 273.578125 C 190.765625 270.738281 191.621094 267.613281 193.039062 266.191406 C 193.609375 265.339844 194.460938 265.058594 195.597656 265.058594 C 197.300781 265.058594 199.859375 265.339844 200.996094 266.476562 C 202.128906 267.613281 202.414062 270.453125 202.414062 272.726562 L 202.414062 290.910156 C 202.414062 294.035156 204.972656 296.589844 208.097656 296.589844 C 211.222656 296.589844 213.777344 294.035156 213.777344 290.910156 L 213.777344 279.261719 C 213.777344 275.285156 217.1875 272.441406 220.027344 272.441406 C 223.152344 272.441406 224.859375 276.136719 224.859375 279.828125 L 224.859375 339.773438 Z M 224.574219 339.773438 " fill-opacity="1" fill-rule="nonzero"/><g clip-path="url(#17f416be2d)"><path fill="#027bff" d="M 187.640625 42.328125 C 137.359375 0 60.371094 0.285156 10.085938 43.464844 C 7.527344 45.738281 5.824219 49.148438 5.824219 52.839844 L 5.824219 281.25 C 5.824219 285.796875 8.378906 290.058594 12.640625 292.328125 C 16.621094 294.316406 21.449219 294.035156 25.140625 291.191406 C 49.859375 273.011719 80.539062 265.625 110.085938 267.898438 L 110.085938 256.535156 C 106.675781 256.25 102.984375 256.25 99.574219 256.25 C 70.878906 256.25 42.472656 264.773438 18.609375 282.101562 C 18.609375 282.101562 18.324219 282.386719 17.753906 282.101562 C 17.472656 282.101562 17.1875 281.816406 17.1875 281.535156 L 17.1875 52.839844 C 17.1875 52.558594 17.1875 52.273438 17.472656 51.988281 C 63.210938 12.785156 136.503906 13.066406 181.960938 52.558594 L 181.960938 239.203125 C 182.527344 239.488281 183.097656 239.488281 183.949219 239.773438 C 183.949219 239.773438 184.234375 239.773438 184.234375 239.773438 C 184.234375 239.773438 184.234375 239.773438 184.515625 239.773438 C 185.085938 240.058594 185.9375 240.339844 186.503906 240.625 C 186.503906 240.625 186.789062 240.625 186.789062 240.910156 C 187.359375 241.191406 187.925781 241.476562 188.496094 241.761719 C 188.777344 241.761719 188.777344 242.046875 189.0625 242.046875 C 189.914062 242.328125 190.484375 242.898438 191.050781 243.464844 C 191.902344 243.464844 192.472656 243.183594 193.324219 243.183594 L 193.324219 52.839844 C 238.777344 13.351562 312.074219 13.066406 357.8125 52.558594 C 358.097656 52.839844 358.097656 53.125 358.097656 53.410156 L 358.097656 281.816406 C 358.097656 282.101562 357.8125 282.386719 357.527344 282.671875 C 357.246094 282.953125 356.960938 282.671875 356.675781 282.671875 C 323.152344 258.238281 279.6875 251.136719 240.765625 261.078125 C 243.039062 264.203125 245.027344 267.613281 245.878906 271.589844 C 281.109375 263.351562 319.746094 269.886719 349.859375 292.046875 C 353.550781 294.601562 358.378906 295.171875 362.359375 293.183594 C 366.621094 291.191406 369.175781 286.933594 369.175781 282.101562 L 369.175781 52.839844 C 369.175781 49.148438 367.753906 45.738281 364.914062 43.464844 C 314.914062 0.285156 237.925781 0 187.640625 42.328125 Z M 187.640625 42.328125 " fill-opacity="1" fill-rule="nonzero"/></g></svg>